<?xml version="1.0" encoding="UTF-8"?>
<svg version="1.1" xmlns="http://www.w3.org/2000/svg" width="512" height="512">
<path d="M0 0 C5.759349 2.7033679 11.56883407 5.44795157 15 11 C16.07917226 14.23751678 16.11425601 16.57751771 16.09765625 19.98046875 C16.09443359 21.14384766 16.09121094 22.30722656 16.08789062 23.50585938 C16.07951172 24.72080078 16.07113281 25.93574219 16.0625 27.1875 C16.05798828 28.41404297 16.05347656 29.64058594 16.04882812 30.90429688 C16.03703065 33.93624668 16.02056921 36.96809906 16 40 C17.06734375 39.61328125 18.1346875 39.2265625 19.234375 38.828125 C27.5618566 35.88873577 35.8304313 33.4042789 44.5 31.6875 C45.29889648 31.52862305 46.09779297 31.36974609 46.92089844 31.20605469 C87.03295276 23.65496461 126.86877784 32.44544863 162.10986328 52.04199219 C162.7336084 52.35813477 163.35735352 52.67427734 164 53 C165.20209106 53.62781372 165.20209106 53.62781372 166.4284668 54.26831055 C168.97935017 55.26024198 168.97935017 55.26024198 171.3581543 54.17993164 C172.17195557 53.67840576 172.98575684 53.17687988 173.82421875 52.66015625 C174.75669434 52.09949463 175.68916992 51.53883301 176.64990234 50.96118164 C177.65230957 50.3346167 178.6547168 49.70805176 179.6875 49.0625 C181.86003599 47.74893909 184.03323566 46.43647535 186.20703125 45.125 C187.32932129 44.44050781 188.45161133 43.75601563 189.60791016 43.05078125 C194.98108074 39.80228313 200.42772225 36.68456385 205.875 33.5625 C208.04199432 32.31567346 210.20865854 31.06827303 212.375 29.8203125 C213.4578125 29.19672852 214.540625 28.57314453 215.65625 27.93066406 C218.52117358 26.27647191 221.38270629 24.61674829 224.24191284 22.95271301 C225.99022008 21.9353784 227.73937369 20.91951406 229.48876953 19.90405273 C231.6684857 18.63818296 233.8466723 17.36967382 236.02294922 16.09790039 C254.83333413 5.19005841 254.83333413 5.19005841 260.5625 4.6875 C267.08924561 7.17953014 274.32679026 10.83508117 278 17 C278.40113831 20.09570313 278.40113831 20.09570313 278.43579102 23.78125 C278.44586685 24.4550621 278.45594269 25.12887421 278.46632385 25.82310486 C278.49479306 28.04890621 278.50068167 30.2740279 278.50390625 32.5 C278.51355537 34.05737582 278.52364844 35.61474894 278.53416443 37.17211914 C278.55212832 40.44049363 278.55768595 43.70863041 278.5559082 46.97705078 C278.55560498 51.13531507 278.59638757 55.29202334 278.64822483 59.44992065 C278.68185064 62.67078421 278.68765762 65.8912837 278.68607903 69.11230469 C278.68958626 70.64312045 278.70266853 72.17394904 278.72607613 73.70458984 C278.88738699 85.35245681 276.82227033 94.64303694 268.99609375 103.7421875 C263.73798599 108.51073236 257.24911632 111.72776681 251.0625 115.125 C249.19733462 116.16279032 247.33404732 117.20388813 245.47103882 118.24554443 C243.70584394 119.23227347 241.93912311 120.21627111 240.17236328 121.20019531 C236.3702328 123.35729135 232.67584046 125.63531665 229 128 C229.22139648 128.62229492 229.44279297 129.24458984 229.67089844 129.88574219 C236.86873047 150.29582781 242.35717113 170.21256128 242 192 C242.64453125 192.20238281 243.2890625 192.40476563 243.953125 192.61328125 C248.29399722 194.58893463 251.92198002 197.36410802 255.75 200.1875 C256.54970215 200.77466797 257.3494043 201.36183594 258.17333984 201.96679688 C259.74657538 203.12437006 261.31808811 204.28428908 262.88769531 205.44677734 C264.63594735 206.73230433 266.40522537 207.98918199 268.1796875 209.23828125 C269.39011719 210.11033203 269.39011719 210.11033203 270.625 211 C271.29789062 211.474375 271.97078125 211.94875 272.6640625 212.4375 C274 214 274 214 274.44921875 216.50390625 C274 219 274 219 272.41796875 220.58984375 C271.68191406 221.03457031 270.94585937 221.47929687 270.1875 221.9375 C269.37539063 222.43378906 268.56328125 222.93007812 267.7265625 223.44140625 C266.82679688 223.95574219 265.92703125 224.47007812 265 225 C264.01773437 225.56589844 263.03546875 226.13179687 262.0234375 226.71484375 C254.38073529 231 254.38073529 231 252 231 C252 231.66 252 232.32 252 233 C253.88525391 233.58201172 253.88525391 233.58201172 255.80859375 234.17578125 C261.45280171 236.0571839 266.72236695 238.58246641 272.0625 241.1875 C273.02349609 241.65091797 273.98449219 242.11433594 274.97460938 242.59179688 C277.3187827 243.7230646 279.66045971 244.85919011 282 246 C282.14695312 245.195625 282.29390625 244.39125 282.4453125 243.5625 C284.05330393 235.13440701 285.92571706 226.77835966 287.9375 218.4375 C288.17807129 217.40302734 288.41864258 216.36855469 288.66650391 215.30273438 C291.0482686 205.61130697 294.56245154 200.40106471 303 195 C309.18553559 191.51932573 309.18553559 191.51932573 311.98779297 190.06689453 C316.49110916 187.63290828 319.10605593 185.13574843 322 181 C322.41904703 177.24797733 322.41904703 177.24797733 322 174 C320.783125 174.061875 319.56625 174.12375 318.3125 174.1875 C313.14840528 174.1692845 310.58585373 172.44992341 306.8125 169 C301.52686613 160.25136463 302.77945163 148.87744646 302.9375 139 C302.9652226 136.89356431 302.98986724 134.78719862 303.00868225 132.68066406 C303.02637525 130.79094133 303.05379957 128.90131705 303.08178711 127.01171875 C303.14448269 123.94951806 303.14448269 123.94951806 302 121 C301.52530541 113.94938918 301.52530541 113.94938918 303 111 C302.34 110.773125 301.68 110.54625 301 110.3125 C290.96 105.92 290.96 105.92 289 102 C288.42840738 96.74134785 288.42840738 96.74134785 290.50683594 94.0456543 C293.81134412 91.33428786 297.2912505 89.81565007 301.203125 88.14453125 C301.99974548 87.79742599 302.79636597 87.45032074 303.61712646 87.09269714 C305.29950962 86.36281222 306.98399437 85.63775482 308.67041016 84.91723633 C311.23353927 83.81954948 313.78680597 82.70100204 316.33984375 81.58007812 C317.98121826 80.87111517 319.62312901 80.16339214 321.265625 79.45703125 C322.02111633 79.12476028 322.77660767 78.79248932 323.55499268 78.45014954 C329.67866136 75.86221392 335.13693549 74.25000805 341.7578125 75.984375 C347.46571668 78.4413645 352.65094665 81.91730179 357.875 85.25 C358.89980469 85.89324219 359.92460937 86.53648438 360.98046875 87.19921875 C377.85686961 97.85686961 377.85686961 97.85686961 381 101 C381.34383776 103.9963005 381.57682231 106.10457822 381 109 C376.8152319 112.97016461 371.43918896 114.40450457 366 116 C366.0309375 117.6396875 366.0309375 117.6396875 366.0625 119.3125 C366 123 366 123 365 126 C364.8719433 127.97776461 364.7715053 129.95737513 364.6875 131.9375 C363.79200355 143.52778258 359.81785844 152.06046219 353.26586914 161.48168945 C350.64645701 165.30059173 350.64645701 165.30059173 349.95703125 169.78515625 C351.30233159 172.64203001 352.12689405 173.63053243 355 175 C358.37339751 174.97107483 361.5549599 174.6582257 364.89257812 174.23828125 C370.84342601 173.64150748 375.09127719 174.89925575 380.0390625 178.47265625 C390.82123952 189.28139035 393.98390228 204.1418071 394 219 C393.35942693 229.47045792 390.70170317 239.52673694 386.03538513 248.94743347 C383.23927505 254.69126259 382.18652682 259.85849794 381.62109375 266.1875 C381.52288834 267.13004639 381.42468292 268.07259277 381.32350159 269.04370117 C381.01387347 272.02789291 380.72391991 275.01349836 380.4375 278 C380.14578739 280.98624769 379.84943236 283.97175148 379.54078674 286.95629883 C379.35014061 288.8040649 379.16910001 290.65285814 378.99961853 292.50268555 C378.34319922 298.92739291 377.46999445 305.86460872 373.36962891 311.06958008 C371.2463627 314.06221214 371.31315536 317.33173533 371.0859375 320.88671875 C370.99598007 322.04963188 370.99598007 322.04963188 370.90420532 323.23603821 C370.71530509 325.7191111 370.54502412 328.20307082 370.375 330.6875 C370.2537963 332.30803231 370.13141109 333.92847671 370.0078125 335.54882812 C369.70368485 339.59166366 369.42438666 343.6357291 369.15612793 347.68109131 C369.00922032 349.86305417 368.85168179 352.04401091 368.69238281 354.22509766 C367.2777978 374.43214753 368.16844326 394.33846685 369.875 414.5 C370.05156726 416.67050912 370.22735023 418.84108218 370.40234375 421.01171875 C371.08744636 429.43862371 371.79628917 437.86280848 372.57910156 446.28125 C372.6720047 447.28160278 372.76490784 448.28195557 372.86062622 449.31262207 C373.03659023 451.19138653 373.21518167 453.06990758 373.39694214 454.94812012 C374.55264259 467.21354709 374.55264259 467.21354709 372.375 470.3125 C369.39816989 472.42761613 367.65800603 472.92827439 364 473 C353.41140514 469.66655347 342.09844091 460.10978284 336 451 C335.01628166 448.04884498 334.90247243 446.40961578 335.625 443.375 C337.37992129 440.34377232 338.76215093 439.32457462 342 438 C344.00923501 438.27218701 346.01242292 438.59919026 348 439 C347.82871582 437.92331055 347.65743164 436.84662109 347.48095703 435.73730469 C341.08704023 395.42802616 341.08704023 395.42802616 340 380 C339.94505371 379.28328125 339.89010742 378.5665625 339.83349609 377.828125 C338.86154877 364.89176414 338.8872942 351.96636927 339 339 C322.97110568 383.61943988 319.68323961 435.61588075 321.02270508 482.68139648 C321.15171947 487.87997262 320.98291737 492.14347778 319 497 C310.45903169 499.84698944 301.48629867 497.95364338 293 495.8125 C292.18724609 495.61640137 291.37449219 495.42030273 290.53710938 495.21826172 C285.41571751 493.83148416 282.50354115 492.18098368 279 488 C278.67 487.67 278.34 487.34 278 487 C277.8125 484.0625 277.8125 484.0625 278 481 C280.28633272 478.71366728 280.95606469 478.64670204 284.0625 478.3125 C285.13177734 478.18294922 285.13177734 478.18294922 286.22265625 478.05078125 C288.78143988 478.00399618 291.13597077 478.20169492 293.67358398 478.49682617 C294.88896095 478.63673225 294.88896095 478.63673225 296.12889099 478.77946472 C296.74635696 478.85224136 297.36382294 478.92501801 298 479 C297.97003433 477.97709869 297.94006866 476.95419739 297.90919495 475.90029907 C297.10858543 448.06051019 296.86810163 420.24573367 296.93133545 392.39550781 C296.94184886 387.2441451 296.94619087 382.09277676 296.95117188 376.94140625 C296.96167196 366.96092374 296.97857143 356.98046464 297 347 C296.06920624 347.78758194 295.13841248 348.57516388 294.17941284 349.38661194 C291.33530067 351.79312934 288.38893135 353.66853934 285.1328125 355.49609375 C284.01229492 356.1298291 282.89177734 356.76356445 281.73730469 357.41650391 C281.14896851 357.74563782 280.56063232 358.07477173 279.95446777 358.41387939 C277.44614716 359.81733055 274.9455439 361.23428175 272.44445801 362.65057373 C271.16121013 363.37716585 269.87759834 364.10311562 268.59362793 364.82843018 C262.61495458 368.20807053 256.67706843 371.65568928 250.75 375.125 C249.77546875 375.69476563 248.8009375 376.26453125 247.796875 376.8515625 C245.83991636 377.99614972 243.88320882 379.14116639 241.92675781 380.28662109 C227.55043686 388.70278897 213.15029945 397.0760615 198.71582031 405.39208984 C187.4520275 411.88499878 176.22447236 418.43942556 165 425 C151.59382119 432.83575666 138.17079317 440.64037711 124.71582031 448.39208984 C111.21180105 456.17635655 97.75746924 464.04558579 84.3046875 471.91796875 C82.65944092 472.87981079 82.65944092 472.87981079 80.98095703 473.86108398 C78.87452064 475.09257094 76.76869611 476.32510525 74.66357422 477.55883789 C73.71756348 478.11176514 72.77155273 478.66469238 71.796875 479.234375 C70.96510742 479.72131836 70.13333984 480.20826172 69.27636719 480.70996094 C64.05467034 483.6691465 60.09274217 485.17652952 54 484 C42.23533849 479.37767145 31.39723744 472.24494992 20.546875 465.84375 C13.73507768 461.83002309 6.87112085 457.91074004 0 454 C-9.72198498 448.4614559 -19.40896636 442.86624035 -29.06689453 437.21655273 C-36.32211933 432.97382606 -43.59371222 428.76033253 -50.875 424.5625 C-51.94161865 423.94705322 -53.0082373 423.33160645 -54.10717773 422.69750977 C-59.19050028 419.76595517 -64.27667398 416.83957412 -69.37084961 413.92692566 C-71.15887857 412.90419934 -72.94602816 411.87995334 -74.73291016 410.85522461 C-76.97431676 409.57041549 -79.21738598 408.28850089 -81.46240234 407.01000977 C-95.4082233 399.0070228 -95.4082233 399.0070228 -98.4375 395.1875 C-99.3286781 391.7218074 -99.79300065 388.49612078 -99 385 C-96.56503068 382.91061877 -94.79193718 381.71241851 -92 380.3125 C-90.97302002 379.74535278 -90.97302002 379.74535278 -89.92529297 379.16674805 C-87.96325782 378.08425392 -85.98602711 377.03764928 -84 376 C-81.10607478 374.44997738 -78.65185038 372.96236928 -76 371 C-74.87055003 367.83538907 -74.87055003 367.83538907 -75 365 C-75.85335937 364.74863281 -76.70671875 364.49726563 -77.5859375 364.23828125 C-81.25257422 362.90839127 -84.30079432 361.22328404 -87.625 359.1875 C-89.28402344 358.18783203 -89.28402344 358.18783203 -90.9765625 357.16796875 C-95.63509563 353.82754771 -98.53908462 350.39675997 -99.625 344.75 C-99 341 -99 341 -97.34594727 339.53442383 C-96.24851196 338.846427 -96.24851196 338.846427 -95.12890625 338.14453125 C-94.30874023 337.62810059 -93.48857422 337.11166992 -92.64355469 336.57958984 C-88.24369593 333.95056453 -83.79463838 331.42328475 -79.3125 328.9375 C-70.05723863 323.76640013 -60.90681422 318.44332998 -51.83129883 312.96264648 C-50.9627124 312.44259033 -50.09412598 311.92253418 -49.19921875 311.38671875 C-48.43440186 310.92483154 -47.66958496 310.46294434 -46.8815918 309.98706055 C-45 309 -45 309 -43 309 C-43.54527344 308.34515625 -44.09054688 307.6903125 -44.65234375 307.015625 C-75.97199546 269.11081575 -91.24822971 227.60421558 -88 178 C-87.18411317 170.60553996 -85.91785321 163.30985276 -84.3671875 156.03588867 C-83.91125318 153.85272839 -83.91125318 153.85272839 -84 151 C-84.495 151.33 -84.99 151.66 -85.5 152 C-89.22245242 153.48898097 -92.1289616 153.91475242 -96 153 C-107.54726952 147.17909571 -107.54726952 147.17909571 -111 142 C-111.2784729 140.11686707 -111.2784729 140.11686707 -111.31884766 137.96948242 C-111.33871735 137.15980515 -111.35858704 136.35012787 -111.37905884 135.51591492 C-111.39061005 134.63796768 -111.40216125 133.76002045 -111.4140625 132.85546875 C-111.43342865 131.93526443 -111.4527948 131.01506012 -111.4727478 130.06697083 C-111.53251573 127.10724251 -111.57868646 124.1474661 -111.625 121.1875 C-111.66322708 119.26756131 -111.70228149 117.3476389 -111.7421875 115.42773438 C-111.83796859 110.59959904 -111.90844803 105.77156282 -111.96447754 100.94281006 C-111.98847409 98.95484842 -112.01615512 96.96692835 -112.04724121 94.97906494 C-112.09180318 92.0238176 -112.1219089 89.06873951 -112.1484375 86.11328125 C-112.17147446 84.7871003 -112.17147446 84.7871003 -112.19497681 83.43412781 C-112.2355164 75.76386278 -111.38029804 68.46585735 -107.3125 61.8125 C-106.85488281 61.03519531 -106.39726563 60.25789063 -105.92578125 59.45703125 C-100.16925558 52.1124985 -92.21929385 48.03378973 -84.1875 43.5625 C-82.93911445 42.85969529 -81.69123896 42.15598388 -80.44384766 41.45141602 C-77.88148163 40.00442923 -75.31747061 38.56042385 -72.75244141 37.11816406 C-67.10153394 33.93489624 -61.48869873 30.68579413 -55.875 27.4375 C-53.74873669 26.20956827 -51.62243449 24.98170389 -49.49609375 23.75390625 C-46.7506458 22.16756375 -44.00529263 20.58105752 -41.2600708 18.99432373 C-38.29813364 17.28233729 -35.33604475 15.57061486 -32.37353516 13.85961914 C-30.15276842 12.57692674 -27.93236529 11.29360452 -25.71240234 10.00952148 C-22.81144642 8.3340771 -19.9064044 6.66596992 -17 5 C-16.13947021 4.50113281 -15.27894043 4.00226562 -14.39233398 3.48828125 C-13.60028564 3.03582031 -12.8082373 2.58335938 -11.9921875 2.1171875 C-11.30882324 1.7238623 -10.62545898 1.33053711 -9.92138672 0.92529297 C-6.45650138 -0.74331128 -3.6222714 -1.0061865 0 0 Z M235 240 C233.82828244 243.28989086 232.66348912 246.58219102 231.5 249.875 C231.16613281 250.81214844 230.83226562 251.74929688 230.48828125 252.71484375 C230.01455078 254.05869141 230.01455078 254.05869141 229.53125 255.4296875 C229.23798828 256.25710449 228.94472656 257.08452148 228.64257812 257.93701172 C227.90087099 259.95812785 227.90087099 259.95812785 228 262 C228.57105469 262.32049316 229.14210938 262.64098633 229.73046875 262.97119141 C236.83174117 266.96071786 243.92013132 270.97261619 251 275 C252.08893555 275.61939453 253.17787109 276.23878906 254.29980469 276.87695312 C257.49648702 278.70116249 260.68663918 280.53629192 263.875 282.375 C264.85339844 282.93268066 265.83179688 283.49036133 266.83984375 284.06494141 C275.08488132 288.84383096 282.71740414 293.92119583 288.7109375 301.421875 C290.04880567 303.05974997 291.49603607 304.51517837 293 306 C292.86089513 302.41637224 292.71254587 298.83318502 292.5625 295.25 C292.52318359 294.23421875 292.48386719 293.2184375 292.44335938 292.171875 C292.40146484 291.1921875 292.35957031 290.2125 292.31640625 289.203125 C292.27974854 288.30239258 292.24309082 287.40166016 292.20532227 286.47363281 C292.01693593 284.20403661 291.62633499 282.18437113 291 280 C290.44054687 279.98324219 289.88109375 279.96648437 289.3046875 279.94921875 C271.2932583 278.00908088 253.73775588 255.28402117 242.078125 242.72265625 C239.67901051 240.73391661 238.02527596 240.50078476 235 240 Z M293 306 C294 308 294 308 294 308 Z " fill="#D4E2F7" transform="translate(115,7)"/>
<path d="M0 0 C0.60328125 0.46148437 1.2065625 0.92296875 1.828125 1.3984375 C2.45332031 1.8521875 3.07851563 2.3059375 3.72265625 2.7734375 C11.22427391 9.12918688 16.3756605 16.03831941 19.171875 25.4921875 C20.15455139 28.34662843 21.36571489 29.66809526 23.828125 31.3984375 C40.66112394 39.21375844 61.74499054 35.89201379 78.76953125 30.125 C83.95842357 28.17695169 88.88914669 25.91163443 93.828125 23.3984375 C93.42781659 33.34294121 92.98453523 43.28027729 92.31640625 53.2109375 C92.27138977 53.88632568 92.22637329 54.56171387 92.17999268 55.25756836 C91.95860255 58.57222954 91.73011588 61.8859207 91.48876953 65.19921875 C90.13662475 85.2181185 91.01253302 104.9255146 92.703125 124.8984375 C92.87969226 127.06894662 93.05547523 129.23951968 93.23046875 131.41015625 C93.91557136 139.83706121 94.62441417 148.26124598 95.40722656 156.6796875 C95.5001297 157.68004028 95.59303284 158.68039307 95.68875122 159.71105957 C95.86471523 161.58982403 96.04330667 163.46834508 96.22506714 165.34655762 C97.38076759 177.61198459 97.38076759 177.61198459 95.203125 180.7109375 C92.22629489 182.82605363 90.48613103 183.32671189 86.828125 183.3984375 C76.23953014 180.06499097 64.92656591 170.50822034 58.828125 161.3984375 C57.84440666 158.44728248 57.73059743 156.80805328 58.453125 153.7734375 C60.20804629 150.74220982 61.59027593 149.72301212 64.828125 148.3984375 C66.83736001 148.67062451 68.84054792 148.99762776 70.828125 149.3984375 C70.65684082 148.32174805 70.48555664 147.24505859 70.30908203 146.13574219 C63.91516523 105.82646366 63.91516523 105.82646366 62.828125 90.3984375 C62.77317871 89.68171875 62.71823242 88.965 62.66162109 88.2265625 C61.68967377 75.29020164 61.7154192 62.36480677 61.828125 49.3984375 C45.79923068 94.01787738 42.51136461 146.01431825 43.85083008 193.07983398 C43.97984447 198.27841012 43.81104237 202.54191528 41.828125 207.3984375 C33.28715669 210.24542694 24.31442367 208.35208088 15.828125 206.2109375 C15.01537109 206.01483887 14.20261719 205.81874023 13.36523438 205.61669922 C8.24384251 204.22992166 5.33166615 202.57942118 1.828125 198.3984375 C1.498125 198.0684375 1.168125 197.7384375 0.828125 197.3984375 C0.640625 194.4609375 0.640625 194.4609375 0.828125 191.3984375 C3.11445772 189.11210478 3.78418969 189.04513954 6.890625 188.7109375 C7.60347656 188.62457031 8.31632813 188.53820312 9.05078125 188.44921875 C11.60956488 188.40243368 13.96409577 188.60013242 16.50170898 188.89526367 C17.3119603 188.98853439 18.12221161 189.08180511 18.95701599 189.17790222 C19.88321495 189.28706718 19.88321495 189.28706718 20.828125 189.3984375 C20.79815933 188.37553619 20.76819366 187.35263489 20.73731995 186.29873657 C19.93671043 158.45894769 19.69622663 130.64417117 19.75946045 102.79394531 C19.76997386 97.6425826 19.77431587 92.49121426 19.77929688 87.33984375 C19.78979696 77.35936124 19.80669643 67.37890214 19.828125 57.3984375 C18.89733124 58.18601944 17.96653748 58.97360138 17.00753784 59.78504944 C14.16342567 62.19156684 11.21705635 64.06697684 7.9609375 65.89453125 C6.84041992 66.5282666 5.71990234 67.16200195 4.56542969 67.81494141 C3.97709351 68.14407532 3.38875732 68.47320923 2.78259277 68.81231689 C0.27427216 70.21576805 -2.2263311 71.63271925 -4.72741699 73.04901123 C-6.01066487 73.77560335 -7.29427666 74.50155312 -8.57824707 75.22686768 C-14.55692042 78.60650803 -20.49480657 82.05412678 -26.421875 85.5234375 C-27.39640625 86.09320313 -28.3709375 86.66296875 -29.375 87.25 C-31.33195864 88.39458722 -33.28866618 89.53960389 -35.24511719 90.68505859 C-49.62143814 99.10122647 -64.02157555 107.474499 -78.45605469 115.79052734 C-89.7198475 122.28343628 -100.94740264 128.83786306 -112.171875 135.3984375 C-125.57805381 143.23419416 -139.00108183 151.03881461 -152.45605469 158.79052734 C-165.96007395 166.57479405 -179.41440576 174.44402329 -192.8671875 182.31640625 C-194.51243408 183.27824829 -194.51243408 183.27824829 -196.19091797 184.25952148 C-198.29735436 185.49100844 -200.40317889 186.72354275 -202.50830078 187.95727539 C-203.45431152 188.51020264 -204.40032227 189.06312988 -205.375 189.6328125 C-206.20676758 190.11975586 -207.03853516 190.60669922 -207.89550781 191.10839844 C-213.27798756 194.1587012 -216.96096073 195.1174863 -223.171875 194.3984375 C-225.68971724 193.60357125 -227.80769136 192.60568021 -230.171875 191.3984375 C-230.171875 186.4484375 -230.171875 181.4984375 -230.171875 176.3984375 C-227.6328125 176.49609375 -225.09375 176.59375 -222.5546875 176.69140625 C-221.76835937 176.59472656 -220.98203125 176.49804688 -220.171875 176.3984375 C-217.27455973 172.05246459 -217.38842168 168.4977565 -218.171875 163.3984375 C-220.1750768 157.83091802 -222.32725753 152.19249096 -227.546875 149.0234375 C-231.48110112 145.08921138 -231.12046592 141.34198597 -231.45703125 135.96875 C-229.35492464 130.12885505 -224.42357734 128.29369497 -219.171875 125.3984375 C-217.19830453 124.24244481 -215.22565076 123.08488569 -213.25390625 121.92578125 C-211.16538302 120.72686338 -209.07548721 119.53033403 -206.984375 118.3359375 C-204.68070662 117.01351 -202.37731094 115.69061722 -200.07421875 114.3671875 C-199.20606537 113.86879616 -199.20606537 113.86879616 -198.32037354 113.3603363 C-192.54747935 110.04460691 -186.79518031 106.69406053 -181.046875 103.3359375 C-179.57287231 102.47524658 -179.57287231 102.47524658 -178.0690918 101.59716797 C-175.10303636 99.86479884 -172.13738339 98.1317429 -169.171875 96.3984375 C-155.76569619 88.56268084 -142.34266817 80.75806039 -128.88769531 73.00634766 C-117.6239025 66.51343872 -106.39634736 59.95901194 -95.171875 53.3984375 C-91.21402026 51.08511712 -87.25576837 48.77248001 -83.296875 46.4609375 C-82.30969482 45.88448486 -81.32251465 45.30803223 -80.30541992 44.71411133 C-73.00576177 40.4564211 -65.68489229 36.23643613 -58.359375 32.0234375 C-49.79740909 27.09856687 -41.2774248 22.10903087 -32.78900146 17.05895996 C-28.9107523 14.75372311 -25.02629497 12.45894437 -21.14306641 10.16210938 C-18.44178187 8.55865173 -15.74983215 6.94054237 -13.05859375 5.3203125 C-11.61780236 4.47031109 -10.17645128 3.62125719 -8.734375 2.7734375 C-8.10837402 2.38881348 -7.48237305 2.00418945 -6.83740234 1.60791016 C-2.7472469 -0.7609281 -2.7472469 -0.7609281 0 0 Z " fill="#7BA2E5" transform="translate(392.171875,296.6015625)"/>
<path d="M0 0 C8.21159484 3.98295109 16.14717484 8.29022261 24 12.9375 C24.99 13.51951172 25.98 14.10152344 27 14.70117188 C28.98632882 15.86891597 30.97073656 17.03993454 32.953125 18.21435547 C35.09851555 19.4716781 37.25600266 20.70847296 39.421875 21.93017578 C40.52015625 22.55263184 41.6184375 23.17508789 42.75 23.81640625 C43.75546875 24.3791626 44.7609375 24.94191895 45.796875 25.52172852 C46.52390625 26.00955811 47.2509375 26.4973877 48 27 C48 27.66 48 28.32 48 29 C47.44465576 29.31001953 46.88931152 29.62003906 46.31713867 29.93945312 C34.72862387 36.42062513 23.21772594 43.01345551 11.8125 49.8125 C2.53115072 55.34399761 -6.79638229 60.78193696 -16.1875 66.125 C-27.86185961 72.7682488 -39.48163213 79.500014 -51.07324219 86.28662109 C-65.44956314 94.70278897 -79.84970055 103.0760615 -94.28417969 111.39208984 C-104.55536692 117.31282049 -114.79651808 123.2843153 -125.03222656 129.26611328 C-129.02059217 131.59626897 -133.01059563 133.92361134 -137.00073242 136.25073242 C-138.98538758 137.40824599 -140.96992714 138.56595781 -142.9543457 139.72387695 C-148.21395344 142.79281192 -153.47510709 145.85905988 -158.73828125 148.921875 C-159.83849609 149.56253906 -160.93871094 150.20320312 -162.07226562 150.86328125 C-164.1890089 152.09581531 -166.30617809 153.32761827 -168.42382812 154.55859375 C-169.37322266 155.11160156 -170.32261719 155.66460937 -171.30078125 156.234375 C-172.13778564 156.72131836 -172.97479004 157.20826172 -173.8371582 157.70996094 C-175.58975957 158.75530981 -177.30205345 159.86803563 -179 161 C-179.77020265 165.71077432 -179.68052947 170.28055581 -179 175 C-176.6776768 177.53009465 -176.6776768 177.53009465 -174.734375 178.62109375 C-170.09012282 182.31348343 -167.47864918 189.1475622 -166.51953125 194.86328125 C-166.40458173 198.5580874 -166.43394533 201.00077544 -168.28125 204.26171875 C-170 206 -170 206 -171.97265625 206.42578125 C-177.77777778 206.11111111 -177.77777778 206.11111111 -180 205 C-180 209.62 -180 214.24 -180 219 C-183.71229983 217.51508007 -186.90600693 216.03192692 -190.359375 214.09375 C-191.89549438 213.23342163 -191.89549438 213.23342163 -193.46264648 212.35571289 C-194.54747314 211.74332764 -195.6322998 211.13094238 -196.75 210.5 C-197.87672119 209.86634521 -199.00344238 209.23269043 -200.16430664 208.57983398 C-206.95517743 204.74999436 -213.70984746 200.86664399 -220.4152832 196.8894043 C-226.72724525 193.14695337 -233.07941601 189.47596521 -239.4375 185.8125 C-241.09833618 184.85549194 -241.09833618 184.85549194 -242.79272461 183.87915039 C-245.06337068 182.57110523 -247.33412358 181.26324552 -249.60498047 179.95556641 C-256.14820118 176.18660352 -262.68780234 172.41136501 -269.22802734 168.63720703 C-275.88763316 164.79454716 -282.54923059 160.95536971 -289.21240234 157.11889648 C-292.48120705 155.23436697 -295.74663141 153.34408576 -299.01171875 151.453125 C-302.74949478 149.29005741 -306.49955293 147.15326641 -310.26953125 145.046875 C-311.05706787 144.60061768 -311.84460449 144.15436035 -312.65600586 143.69458008 C-314.07366237 142.89146495 -315.49718001 142.09855284 -316.92797852 141.3190918 C-321.24945758 138.84830989 -323.82892803 136.50033764 -326 132 C-326.76333761 128.84882528 -326.58999056 127.36227575 -326 124 C-323.56503068 121.91061877 -321.79193718 120.71241851 -319 119.3125 C-318.31534668 118.93440186 -317.63069336 118.55630371 -316.92529297 118.16674805 C-314.96325782 117.08425392 -312.98602711 116.03764928 -311 115 C-308.10607478 113.44997738 -305.65185038 111.96236928 -303 110 C-301.87055003 106.83538907 -301.87055003 106.83538907 -302 104 C-302.85335937 103.74863281 -303.70671875 103.49726563 -304.5859375 103.23828125 C-308.25257422 101.90839127 -311.30079432 100.22328404 -314.625 98.1875 C-316.28402344 97.18783203 -316.28402344 97.18783203 -317.9765625 96.16796875 C-322.63509563 92.82754771 -325.53908462 89.39675997 -326.625 83.75 C-326 80 -326 80 -324.34155273 78.53222656 C-323.24242554 77.84338379 -323.24242554 77.84338379 -322.12109375 77.140625 C-321.30060547 76.6240332 -320.48011719 76.10744141 -319.63476562 75.57519531 C-315.2782309 72.9706399 -310.87512189 70.4635455 -306.4375 68 C-294.20300477 61.15041649 -282.0921124 54.09723 -270 47 C-269.5555957 47.38236816 -269.11119141 47.76473633 -268.65332031 48.15869141 C-230.15866176 81.2262004 -188.52282015 99.80623562 -137 97 C-130.56245233 96.48432772 -124.30042026 95.3966078 -118 94 C-117.09685059 93.80132324 -116.19370117 93.60264648 -115.26318359 93.39794922 C-84.50198974 86.42694365 -58.90525265 72.62665003 -36 51 C-35.14019531 50.21625 -34.28039062 49.4325 -33.39453125 48.625 C-18.90982382 34.91364636 -8.81530993 17.7284862 0 0 Z " fill="#B0C4FE" transform="translate(342,268)"/>
<path d="M0 0 C0.7122876 0.433125 1.4245752 0.86625 2.15844727 1.3125 C4.53606306 2.77076419 6.89486646 4.25570838 9.25 5.75 C10.14122559 6.31525391 11.03245117 6.88050781 11.95068359 7.46289062 C16.40924853 10.30421745 20.85327225 13.16773716 25.27734375 16.0625 C25.99656006 16.53300781 26.71577637 17.00351563 27.45678711 17.48828125 C29.25 18.75 29.25 18.75 31.25 20.75 C31.64707705 23.82734713 31.90019211 25.80363393 31.25 28.75 C27.0652319 32.72016461 21.68918896 34.15450457 16.25 35.75 C16.270625 36.843125 16.29125 37.93625 16.3125 39.0625 C16.25 42.75 16.25 42.75 15.25 45.75 C15.1219433 47.72776461 15.0215053 49.70737513 14.9375 51.6875 C14.04200355 63.27778258 10.06785844 71.81046219 3.51586914 81.23168945 C0.89645701 85.05059173 0.89645701 85.05059173 0.20703125 89.53515625 C1.55233159 92.39203001 2.37689405 93.38053243 5.25 94.75 C8.62339751 94.72107483 11.8049599 94.4082257 15.14257812 93.98828125 C21.09342601 93.39150748 25.34127719 94.64925575 30.2890625 98.22265625 C41.07123952 109.03139035 44.23390228 123.8918071 44.25 138.75 C43.60942693 149.22045792 40.95170317 159.27673694 36.28538513 168.69743347 C33.48927505 174.44126259 32.43652682 179.60849794 31.87109375 185.9375 C31.72378563 187.35131958 31.72378563 187.35131958 31.57350159 188.79370117 C31.26387347 191.77789291 30.97391991 194.76349836 30.6875 197.75 C30.39578739 200.73624769 30.09943236 203.72175148 29.79078674 206.70629883 C29.60014061 208.5540649 29.41910001 210.40285814 29.24961853 212.25268555 C28.53595835 219.2376382 27.45386131 226.02515787 22.953125 231.58984375 C6.96495163 244.36651987 -15.94793839 247.04613494 -35.75 245.75 C-42.23017566 244.7393304 -47.66018062 242.92626205 -52.75 238.75 C-55.23907508 235.01638738 -55.66010917 231.46896819 -56.3125 227.125 C-56.44180908 226.2899292 -56.57111816 225.4548584 -56.7043457 224.59448242 C-57.92066606 216.33704462 -58.44051887 208.08464686 -58.75 199.75 C-59.78125 199.811875 -60.8125 199.87375 -61.875 199.9375 C-68.56739053 199.61367465 -72.78659492 196.2039887 -77.6875 191.9375 C-78.24034668 191.46248047 -78.79319336 190.98746094 -79.36279297 190.49804688 C-85.72183644 184.98510207 -91.87512501 179.25196622 -97.96191406 173.44140625 C-99.68231539 171.81402498 -101.42716876 170.21764341 -103.1796875 168.625 C-104.20394782 167.66754615 -105.22743376 166.70926293 -106.25 165.75 C-107.1471875 164.925 -108.044375 164.1 -108.96875 163.25 C-110.75 160.75 -110.75 160.75 -110.62890625 157.58984375 C-109.55857809 154.13149455 -108.81603168 152.71540492 -105.75 150.75 C-100.04267356 151.06652875 -95.54523819 152.39406353 -90.40625 154.91015625 C-89.42440735 155.37415077 -89.42440735 155.37415077 -88.42272949 155.84751892 C-86.35993065 156.82529927 -84.30503602 157.81852473 -82.25 158.8125 C-80.84164149 159.48346325 -79.43279104 160.15339494 -78.0234375 160.82226562 C-74.59316176 162.45298615 -71.16987667 164.09758933 -67.75 165.75 C-67.56751709 164.81293213 -67.38503418 163.87586426 -67.19702148 162.91040039 C-65.56507001 154.62643309 -63.8217841 146.38985607 -61.8125 138.1875 C-61.57337891 137.16076172 -61.33425781 136.13402344 -61.08789062 135.07617188 C-58.70778942 125.37364849 -55.19663412 120.15688065 -46.75 114.75 C-40.56446441 111.26932573 -40.56446441 111.26932573 -37.76220703 109.81689453 C-33.25889084 107.38290828 -30.64394407 104.88574843 -27.75 100.75 C-27.33095297 96.99797733 -27.33095297 96.99797733 -27.75 93.75 C-29.5753125 93.8428125 -29.5753125 93.8428125 -31.4375 93.9375 C-36.60159472 93.9192845 -39.16414627 92.19992341 -42.9375 88.75 C-48.22313387 80.00136463 -46.97054837 68.62744646 -46.8125 58.75 C-46.7847774 56.64356431 -46.76013276 54.53719862 -46.74131775 52.43066406 C-46.72362475 50.54094133 -46.69620043 48.65131705 -46.66821289 46.76171875 C-46.60551731 43.69951806 -46.60551731 43.69951806 -47.75 40.75 C-48.22469459 33.69938918 -48.22469459 33.69938918 -46.75 30.75 C-47.41 30.523125 -48.07 30.29625 -48.75 30.0625 C-58.79 25.67 -58.79 25.67 -60.75 21.75 C-61.32117857 16.49515718 -61.32117857 16.49515718 -59.25195312 13.7956543 C-55.90625034 11.06013091 -52.37043641 9.56061808 -48.40625 7.89453125 C-47.19708923 7.37387337 -47.19708923 7.37387337 -45.96350098 6.84269714 C-44.26420733 6.11305815 -42.56294328 5.38799319 -40.85986328 4.66723633 C-38.25512571 3.56466967 -35.65647712 2.44868631 -33.05859375 1.33007812 C-31.4039833 0.62160718 -29.74904609 -0.08610124 -28.09375 -0.79296875 C-27.31761353 -1.12523972 -26.54147705 -1.45751068 -25.74182129 -1.79985046 C-25.01426636 -2.1071962 -24.28671143 -2.41454193 -23.53710938 -2.73120117 C-22.58257874 -3.13613045 -22.58257874 -3.13613045 -21.60876465 -3.54924011 C-13.39418732 -6.64616058 -7.09385105 -4.45373911 0 0 Z " fill="#FEE902" transform="translate(464.75,87.25)"/>
<path d="M0 0 C2.66001783 0.93050053 4.34360947 2.40472564 6.4921875 4.21875 C10.85349022 7.80866584 13.35943381 9.09220926 19.0546875 8.71875 C22.21317533 6.39223492 22.21317533 6.39223492 25.0546875 3.71875 C28.88346025 2.44249242 30.49967065 2.51595538 34.3046875 3.90625 C37.2511889 5.84826229 37.81489999 6.53699443 39.0546875 9.71875 C39.57344189 12.78598826 39.93787426 15.85170843 40.296875 18.94140625 C40.85195235 21.75416033 40.85195235 21.75416033 42.671875 23.609375 C46.05366788 25.18384906 48.62156044 24.78138331 52.3046875 24.40625 C53.56796875 24.28636719 54.83125 24.16648437 56.1328125 24.04296875 C57.09703125 23.93597656 58.06125 23.82898438 59.0546875 23.71875 C59.0546875 19.75875 59.0546875 15.79875 59.0546875 11.71875 C59.3846875 11.71875 59.7146875 11.71875 60.0546875 11.71875 C60.05611252 12.54702805 60.05753754 13.37530609 60.05900574 14.22868347 C60.07684921 22.04167962 60.11850214 29.85411018 60.18677807 37.66683483 C60.22104187 41.68332038 60.246157 45.69942584 60.25024414 49.71606445 C60.25452857 53.59380773 60.28300155 57.47069369 60.32811928 61.34816933 C60.34108996 62.82605301 60.34540342 64.30403932 60.34084129 65.78197289 C60.33593144 67.85582947 60.36203557 69.92718389 60.39526367 72.00073242 C60.40525642 73.76944954 60.40525642 73.76944954 60.41545105 75.57389832 C61.38481913 80.34289864 64.32082907 82.44791059 68.1171875 85.23046875 C68.7565625 85.61847656 69.3959375 86.00648438 70.0546875 86.40625 C70.73789062 86.82132812 71.42109375 87.23640625 72.125 87.6640625 C74.15915362 88.83669568 74.15915362 88.83669568 76.9296875 89.78125 C79.0546875 90.71875 79.0546875 90.71875 79.9296875 92.59375 C81.69226887 95.92307036 84.71580082 97.16456889 88.0546875 98.71875 C90.32454644 99.47915572 90.32454644 99.47915572 92.0546875 99.71875 C92.27898437 99.06777344 92.50328125 98.41679687 92.734375 97.74609375 C94.5123694 93.66933145 96.79647891 90.02861761 99.1796875 86.28125 C99.85257813 85.17426758 99.85257813 85.17426758 100.5390625 84.04492188 C106.27710205 75.02914743 114.76141932 70.48727702 123.8671875 65.28125 C124.80755859 64.72759766 125.74792969 64.17394531 126.71679688 63.60351562 C127.61849609 63.08595703 128.52019531 62.56839844 129.44921875 62.03515625 C130.26237549 61.56537354 131.07553223 61.09559082 131.91333008 60.61157227 C134.0546875 59.71875 134.0546875 59.71875 137.0546875 60.71875 C138.18468837 62.97875174 139.08162027 65.102031 139.9296875 67.46875 C140.1865332 68.17394775 140.44337891 68.87914551 140.70800781 69.60571289 C146.73478918 86.78501231 150.71915156 105.44598828 150.0546875 123.71875 C150.69921875 123.92113281 151.34375 124.12351562 152.0078125 124.33203125 C156.34868472 126.30768463 159.97666752 129.08285802 163.8046875 131.90625 C164.60438965 132.49341797 165.4040918 133.08058594 166.22802734 133.68554688 C167.80126288 134.84312006 169.37277561 136.00303908 170.94238281 137.16552734 C172.69063485 138.45105433 174.45991287 139.70793199 176.234375 140.95703125 C177.44480469 141.82908203 177.44480469 141.82908203 178.6796875 142.71875 C179.35257813 143.193125 180.02546875 143.6675 180.71875 144.15625 C182.0546875 145.71875 182.0546875 145.71875 182.49609375 148.2265625 C182.0546875 150.71875 182.0546875 150.71875 180.54296875 152.2734375 C178.0591944 153.78064707 175.57573683 155.27418179 173.0546875 156.71875 C171.99507812 157.358125 170.93546875 157.9975 169.84375 158.65625 C160.31041466 164.16736227 160.31041466 164.16736227 155.4921875 163.84375 C154.3578125 163.8025 153.2234375 163.76125 152.0546875 163.71875 C149.26567388 166.36097343 147.60762991 169.22462958 146.0546875 172.71875 C145.35085938 172.33847656 144.64703125 171.95820313 143.921875 171.56640625 C140.08661153 170.4325477 138.68278003 171.3319122 135.1796875 173.15625 C123.38750625 179.60148632 119.65622284 187.74178879 114.74609375 199.98046875 C108.61596591 215.200755 108.61596591 215.200755 100.3125 218.87890625 C96.2861609 220.37659294 92.19013358 221.56552614 88.0546875 222.71875 C87.0646875 223.04875 86.0746875 223.37875 85.0546875 223.71875 C83.95921201 226.01040299 83.95921201 226.01040299 83.0546875 228.71875 C82.21938389 230.47783174 81.36514476 232.22804717 80.4921875 233.96875 C80.05777344 234.84015625 79.62335938 235.7115625 79.17578125 236.609375 C78.0546875 238.71875 78.0546875 238.71875 77.0546875 239.71875 C73.15995085 240.24985045 71.56183556 240.09616251 68.3671875 237.71875 C62.19765875 229.71503703 61.88325251 220.33104 61.44921875 210.60546875 C61.60874752 206.85215072 61.60874752 206.85215072 60.0546875 203.71875 C51.22214413 202.91579151 44.64400352 206.32528146 36.9921875 210.40625 C32.47094079 212.70252988 28.1866041 214.22761093 23.0546875 213.71875 C20.9921875 212.34375 20.9921875 212.34375 20.0546875 209.71875 C18.44845735 200.95749462 22.9106467 194.24190127 26.94677734 186.77636719 C28.65946641 183.59555109 30.2989044 180.37960502 31.9296875 177.15625 C32.48398438 176.08246094 33.03828125 175.00867188 33.609375 173.90234375 C37.05034598 166.32290768 38.5842038 158.7668006 35.9921875 150.71875 C34.26803358 146.56586003 31.57053388 143.29975639 28.67578125 139.89453125 C22.61952731 131.76601692 23.88116823 121.21522899 25.0546875 111.71875 C24.24644531 111.41582031 23.43820313 111.11289063 22.60546875 110.80078125 C11.8530681 106.58542515 11.8530681 106.58542515 8.0546875 101.71875 C7.2915625 100.81125 6.5284375 99.90375 5.7421875 98.96875 C3.54402208 94.73524622 3.2211941 91.39846818 4.0546875 86.71875 C6.43829485 82.34880319 10.04752317 80.26629613 14.25 77.83203125 C16.20599751 76.72114916 16.20599751 76.72114916 18.0546875 74.71875 C19.36174771 68.52278189 17.8358225 63.76134216 15.0546875 58.21875 C12.21059711 52.46991326 10.78509286 48.08736701 12.0546875 41.71875 C13.00582837 39.08452034 14.08471657 36.54235847 15.21484375 33.98046875 C16.38176262 30.83792909 16.26797957 28.82781093 15.0546875 25.71875 C12.7976726 23.3714545 10.07714497 22.23984805 7.1796875 20.84375 C-0.02818309 17.27324639 -5.18587538 12.39300547 -7.9453125 4.71875 C-7.69921875 2.50390625 -7.69921875 2.50390625 -6.9453125 0.71875 C-4.49200158 -0.50790546 -2.68063123 -0.40042624 0 0 Z " fill="#C6D7EE" transform="translate(206.9453125,75.28125)"/>
<path d="M0 0 C11.03593969 6.02527966 11.03593969 6.02527966 14 11 C14.40113831 14.09570313 14.40113831 14.09570313 14.43579102 17.78125 C14.44586685 18.4550621 14.45594269 19.12887421 14.46632385 19.82310486 C14.49479306 22.04890621 14.50068167 24.2740279 14.50390625 26.5 C14.51355537 28.05737582 14.52364844 29.61474894 14.53416443 31.17211914 C14.55212832 34.44049363 14.55768595 37.70863041 14.5559082 40.97705078 C14.55560498 45.13531507 14.59638757 49.29202334 14.64822483 53.44992065 C14.68185064 56.67078421 14.68765762 59.8912837 14.68607903 63.11230469 C14.68958626 64.64312045 14.70266853 66.17394904 14.72607613 67.70458984 C14.88740669 79.35387891 12.82658292 88.65530396 4.984375 97.74609375 C-0.23524656 102.47727103 -6.61651521 105.6783144 -12.75 109.0625 C-13.97454685 109.74960324 -15.19850929 110.4377491 -16.421875 111.12695312 C-22.65838356 114.6312366 -28.9350478 118.06167131 -35.21728516 121.4831543 C-40.59972906 124.41710095 -45.96670487 127.37471475 -51.3125 130.375 C-52.45267578 130.99632812 -53.59285156 131.61765625 -54.76757812 132.2578125 C-61.45840741 136.03873646 -66.03968462 139.39816292 -70 146 C-70.45640869 146.70302246 -70.91281738 147.40604492 -71.38305664 148.13037109 C-72.74427813 150.2361413 -74.06465368 152.36227489 -75.375 154.5 C-75.82488281 155.22703125 -76.27476562 155.9540625 -76.73828125 156.703125 C-77.82889373 158.46666858 -78.91494441 160.233032 -80 162 C-83.57619114 161.43731258 -86.18788283 160.55343257 -89.25 158.625 C-90.27867187 157.99464844 -90.27867187 157.99464844 -91.328125 157.3515625 C-93 156 -93 156 -94 153 C-95.61842143 152.29194063 -97.2416484 151.59294193 -98.88671875 150.94921875 C-104.00705906 148.64932467 -108.87550941 145.68673589 -112 141 C-112.28088379 138.02455139 -112.28088379 138.02455139 -112.32226562 134.33227539 C-112.33716034 133.32177628 -112.33716034 133.32177628 -112.35235596 132.29086304 C-112.38158151 130.05975236 -112.39520682 127.82892703 -112.40625 125.59765625 C-112.41776364 124.03885395 -112.42927896 122.48005166 -112.4407959 120.92124939 C-112.46181716 117.64694912 -112.47349849 114.37274693 -112.48046875 111.09838867 C-112.49137578 106.932309 -112.53928957 102.76755756 -112.59641266 98.60189152 C-112.63396149 95.3767694 -112.64409249 92.15195592 -112.6471405 88.92663383 C-112.65313908 87.393008 -112.66900937 85.85938399 -112.69551086 84.32597542 C-112.87104867 73.37816005 -111.5025089 64.13517837 -103.88075256 55.63708496 C-98.36397469 50.29594089 -91.73442535 46.63918602 -85.0625 42.9375 C-83.33251117 41.95878122 -81.60253188 40.98004509 -79.87313843 40.00027466 C-78.09189447 38.99283499 -76.30811613 37.99000359 -74.52392578 36.98779297 C-68.98861292 33.87278962 -63.49717885 30.68163079 -58 27.5 C-55.8516943 26.2614901 -53.70325618 25.02320988 -51.5546875 23.78515625 C-47.62126249 21.51641924 -43.69167069 19.24133422 -39.76715088 16.95724487 C-38.01729819 15.93911289 -36.26659057 14.92246667 -34.515625 13.90625 C-32.33423929 12.63963894 -30.15441975 11.3703247 -27.9765625 10.09765625 C-6.36973038 -2.43207887 -6.36973038 -2.43207887 0 0 Z " fill="#5789DB" transform="translate(379,13)"/>
<path d="M0 0 C5.759349 2.7033679 11.56883407 5.44795157 15 11 C15.96825015 13.90475045 16.12882507 15.73704623 16.1328125 18.7578125 C16.13619629 20.25562256 16.13619629 20.25562256 16.13964844 21.78369141 C16.13481445 22.88632324 16.12998047 23.98895508 16.125 25.125 C16.12016602 26.2804834 16.11533203 27.4359668 16.11035156 28.62646484 C16.08870041 31.97849586 16.05820293 35.33022665 16.02282715 38.68212891 C15.99832996 41.16957576 15.98003142 43.65703014 15.96191406 46.14453125 C15.92564625 50.72353669 15.8649905 55.30177451 15.79046631 59.88031006 C15.76365559 61.6987886 15.74326957 63.51737409 15.72955322 65.33599854 C15.57533744 83.95766057 15.57533744 83.95766057 11 91 C10.60111572 91.65685791 10.20223145 92.31371582 9.79125977 92.99047852 C6.95547419 97.51105066 3.50691212 100.19380943 -1 103 C-1.66 103 -2.32 103 -3 103 C-2.94779297 104.58941406 -2.94779297 104.58941406 -2.89453125 106.2109375 C-2.86639601 107.59894252 -2.83909557 108.98696463 -2.8125 110.375 C-2.78736328 111.07367188 -2.76222656 111.77234375 -2.73632812 112.4921875 C-2.70703125 114.5234375 -2.70703125 114.5234375 -3 118 C-3.99 118.66 -4.98 119.32 -6 120 C-9.10350376 118.92967186 -11.94278307 117.49925739 -14.89453125 116.06640625 C-19.320175 114.54665689 -22.45670734 115.27205854 -26.65527344 117.25244141 C-27.54762695 117.78015137 -28.43998047 118.30786133 -29.359375 118.8515625 C-30.38039307 119.448479 -31.40141113 120.04539551 -32.45336914 120.66040039 C-33.54125732 121.30871826 -34.62914551 121.95703613 -35.75 122.625 C-37.48185948 123.64201051 -39.2137289 124.65900453 -40.94618225 125.67500305 C-42.143326 126.37791229 -43.33971887 127.08210182 -44.53538513 127.78752136 C-48.73141813 130.26302619 -52.94652276 132.70283718 -57.17578125 135.12109375 C-57.75675568 135.45375244 -58.3377301 135.78641113 -58.93630981 136.12915039 C-61.71705193 137.72124204 -64.4988775 139.31139532 -67.28222656 140.89892578 C-72.72016146 144.02326971 -78.01081889 147.24768182 -83.15795898 150.83374023 C-87.17529654 153.37725535 -91.4120073 154.00539346 -96 153 C-107.52693208 147.20960187 -107.52693208 147.20960187 -111 142 C-111.2784729 140.11686707 -111.2784729 140.11686707 -111.31884766 137.96948242 C-111.33871735 137.15980515 -111.35858704 136.35012787 -111.37905884 135.51591492 C-111.39061005 134.63796768 -111.40216125 133.76002045 -111.4140625 132.85546875 C-111.43342865 131.93526443 -111.4527948 131.01506012 -111.4727478 130.06697083 C-111.53251573 127.10724251 -111.57868646 124.1474661 -111.625 121.1875 C-111.66322708 119.26756131 -111.70228149 117.3476389 -111.7421875 115.42773438 C-111.83796859 110.59959904 -111.90844803 105.77156282 -111.96447754 100.94281006 C-111.98847409 98.95484842 -112.01615512 96.96692835 -112.04724121 94.97906494 C-112.09180318 92.0238176 -112.1219089 89.06873951 -112.1484375 86.11328125 C-112.17147446 84.7871003 -112.17147446 84.7871003 -112.19497681 83.43412781 C-112.2355164 75.76386278 -111.38029804 68.46585735 -107.3125 61.8125 C-106.85488281 61.03519531 -106.39726563 60.25789063 -105.92578125 59.45703125 C-100.16925558 52.1124985 -92.21929385 48.03378973 -84.1875 43.5625 C-82.93911445 42.85969529 -81.69123896 42.15598388 -80.44384766 41.45141602 C-77.88148163 40.00442923 -75.31747061 38.56042385 -72.75244141 37.11816406 C-67.10153394 33.93489624 -61.48869873 30.68579413 -55.875 27.4375 C-53.74873669 26.20956827 -51.62243449 24.98170389 -49.49609375 23.75390625 C-46.7506458 22.16756375 -44.00529263 20.58105752 -41.2600708 18.99432373 C-38.29813364 17.28233729 -35.33604475 15.57061486 -32.37353516 13.85961914 C-30.15276842 12.57692674 -27.93236529 11.29360452 -25.71240234 10.00952148 C-22.81144642 8.3340771 -19.9064044 6.66596992 -17 5 C-16.13947021 4.50113281 -15.27894043 4.00226562 -14.39233398 3.48828125 C-13.60028564 3.03582031 -12.8082373 2.58335938 -11.9921875 2.1171875 C-11.30882324 1.7238623 -10.62545898 1.33053711 -9.92138672 0.92529297 C-6.45650138 -0.74331128 -3.6222714 -1.0061865 0 0 Z " fill="#5789DC" transform="translate(115,7)"/>
<path d="M0 0 C-0.40030841 9.94450371 -0.84358977 19.88183979 -1.51171875 29.8125 C-1.57924347 30.82558228 -1.57924347 30.82558228 -1.64813232 31.85913086 C-1.86952245 35.17379204 -2.09800912 38.4874832 -2.33935547 41.80078125 C-3.69150025 61.819681 -2.81559198 81.5270771 -1.125 101.5 C-0.94843274 103.67050912 -0.77264977 105.84108218 -0.59765625 108.01171875 C0.08744636 116.43862371 0.79628917 124.86280848 1.57910156 133.28125 C1.6720047 134.28160278 1.76490784 135.28195557 1.86062622 136.31262207 C2.03659023 138.19138653 2.21518167 140.06990758 2.39694214 141.94812012 C3.55264259 154.21354709 3.55264259 154.21354709 1.375 157.3125 C-1.60183011 159.42761613 -3.34199397 159.92827439 -7 160 C-17.58859486 156.66655347 -28.90155909 147.10978284 -35 138 C-35.98371834 135.04884498 -36.09752757 133.40961578 -35.375 130.375 C-33.62007871 127.34377232 -32.23784907 126.32457462 -29 125 C-26.99076499 125.27218701 -24.98757708 125.59919026 -23 126 C-23.17128418 124.92331055 -23.34256836 123.84662109 -23.51904297 122.73730469 C-29.91295977 82.42802616 -29.91295977 82.42802616 -31 67 C-31.08241943 65.92492187 -31.08241943 65.92492187 -31.16650391 64.828125 C-32.13845123 51.89176414 -32.1127058 38.96636927 -32 26 C-48.02889432 70.61943988 -51.31676039 122.61588075 -49.97729492 169.68139648 C-49.84828053 174.87997262 -50.01708263 179.14347778 -52 184 C-60.54096831 186.84698944 -69.51370133 184.95364338 -78 182.8125 C-78.81275391 182.61640137 -79.62550781 182.42030273 -80.46289062 182.21826172 C-85.58428249 180.83148416 -88.49645885 179.18098368 -92 175 C-92.33 174.67 -92.66 174.34 -93 174 C-93.1875 171.0625 -93.1875 171.0625 -93 168 C-90.71366728 165.71366728 -90.04393531 165.64670204 -86.9375 165.3125 C-86.22464844 165.22613281 -85.51179688 165.13976562 -84.77734375 165.05078125 C-80.80689844 164.9781852 -76.93371061 165.49658348 -73 166 C-73.04543945 164.64926392 -73.04543945 164.64926392 -73.09179688 163.27124023 C-74.7482993 111.56606555 -75.15654602 59.6506633 -72 8 C-71.33613281 8.20496094 -70.67226563 8.40992188 -69.98828125 8.62109375 C-69.10527344 8.89050781 -68.22226562 9.15992188 -67.3125 9.4375 C-66.44238281 9.70433594 -65.57226562 9.97117187 -64.67578125 10.24609375 C-45.85175909 15.54979634 -23.39938628 11.24725739 -6 3 C-0.94326241 0 -0.94326241 0 0 0 Z " fill="#353437" transform="translate(486,320)"/>
<path d="M0 0 C0.7122876 0.433125 1.4245752 0.86625 2.15844727 1.3125 C4.53606306 2.77076419 6.89486646 4.25570838 9.25 5.75 C10.14122559 6.31525391 11.03245117 6.88050781 11.95068359 7.46289062 C16.40924853 10.30421745 20.85327225 13.16773716 25.27734375 16.0625 C25.99656006 16.53300781 26.71577637 17.00351563 27.45678711 17.48828125 C29.25 18.75 29.25 18.75 31.25 20.75 C31.64707705 23.82734713 31.90019211 25.80363393 31.25 28.75 C27.0652319 32.72016461 21.68918896 34.15450457 16.25 35.75 C16.270625 36.843125 16.29125 37.93625 16.3125 39.0625 C16.25 42.75 16.25 42.75 15.25 45.75 C15.1219433 47.72776461 15.0215053 49.70737513 14.9375 51.6875 C13.9785541 64.09899979 9.20971956 72.99837304 2.4921875 83.18359375 C1.08430662 85.33194494 0.11137325 87.10841317 -0.82421875 89.52734375 C-2.90399428 94.5205601 -8.58927053 97.1051503 -13.125 99.625 C-17.76367446 101.06458862 -21.93575688 101.01153836 -26.75 100.75 C-27.245 97.285 -27.245 97.285 -27.75 93.75 C-29.5753125 93.8428125 -29.5753125 93.8428125 -31.4375 93.9375 C-36.60159472 93.9192845 -39.16414627 92.19992341 -42.9375 88.75 C-48.22313387 80.00136463 -46.97054837 68.62744646 -46.8125 58.75 C-46.7847774 56.64356431 -46.76013276 54.53719862 -46.74131775 52.43066406 C-46.72362475 50.54094133 -46.69620043 48.65131705 -46.66821289 46.76171875 C-46.60551731 43.69951806 -46.60551731 43.69951806 -47.75 40.75 C-48.22469459 33.69938918 -48.22469459 33.69938918 -46.75 30.75 C-47.41 30.523125 -48.07 30.29625 -48.75 30.0625 C-58.79 25.67 -58.79 25.67 -60.75 21.75 C-61.32117857 16.49515718 -61.32117857 16.49515718 -59.25195312 13.7956543 C-55.90625034 11.06013091 -52.37043641 9.56061808 -48.40625 7.89453125 C-47.60014282 7.54742599 -46.79403564 7.20032074 -45.96350098 6.84269714 C-44.26420733 6.11305815 -42.56294328 5.38799319 -40.85986328 4.66723633 C-38.25512571 3.56466967 -35.65647712 2.44868631 -33.05859375 1.33007812 C-31.4039833 0.62160718 -29.74904609 -0.08610124 -28.09375 -0.79296875 C-27.31761353 -1.12523972 -26.54147705 -1.45751068 -25.74182129 -1.79985046 C-25.01426636 -2.1071962 -24.28671143 -2.41454193 -23.53710938 -2.73120117 C-22.58257874 -3.13613045 -22.58257874 -3.13613045 -21.60876465 -3.54924011 C-13.39418732 -6.64616058 -7.09385105 -4.45373911 0 0 Z " fill="#B0C4FE" transform="translate(464.75,87.25)"/>
<path d="M0 0 C8.9888456 6.57573268 12.98385212 17.41869975 15 28 C17.18734373 43.34756056 14.94311079 58.00162297 8.03538513 71.94743347 C5.23927505 77.69126259 4.18652682 82.85849794 3.62109375 89.1875 C3.52288834 90.13004639 3.42468292 91.07259277 3.32350159 92.04370117 C3.01387347 95.02789291 2.72391991 98.01349836 2.4375 101 C2.14578739 103.98624769 1.84943236 106.97175148 1.54078674 109.95629883 C1.35014061 111.8040649 1.16910001 113.65285814 0.99961853 115.50268555 C0.28595835 122.4876382 -0.79613869 129.27515787 -5.296875 134.83984375 C-21.28504837 147.61651987 -44.19793839 150.29613494 -64 149 C-70.48017566 147.9893304 -75.91018062 146.17626205 -81 142 C-83.12508244 138.81237635 -83.5020163 136.73487777 -84 133 C-77.35422676 131.08037557 -70.76767863 129.72228911 -63.890625 128.97265625 C-63.18772339 128.89582611 -62.48482178 128.81899597 -61.76062012 128.73983765 C-58.85605227 128.42976207 -55.95056371 128.13125415 -53.04345703 127.84594727 C-43.42195311 126.88636432 -36.23097804 125.56151696 -28.0625 120 C-24.83111384 117.889707 -21.61958199 116.46349327 -18.05078125 115.02734375 C-15.85227311 113.92599586 -14.5276868 112.92269616 -13 111 C-12.50700675 106.80955739 -12.90330228 104.2389598 -14.4921875 100.3125 C-16.20899581 95.89194812 -16.43166624 91.88886301 -16.5 87.1875 C-16.67259049 81.89400356 -16.99783955 77.10152083 -18.5625 72 C-20.4856324 65.69212574 -21.46129557 60.26182048 -18.6875 54.0703125 C-17.63920353 52.17027514 -16.54911996 50.29242623 -15.41015625 48.4453125 C-12.03699752 42.59601233 -12.1497523 35.60860941 -13.671875 29.1484375 C-14.21884933 27.27530841 -14.76828228 25.40289531 -15.3203125 23.53125 C-17.01504921 17.21981672 -16.09159902 11.65648117 -13 6 C-9.44152429 1.50815361 -5.92673327 -2.1811292 0 0 Z " fill="#F3D500" transform="translate(493,184)"/>
<path d="M0 0 C-0.09075806 1.38650757 -0.09075806 1.38650757 -0.18334961 2.80102539 C-0.36532905 10.15628166 -0.36532905 10.15628166 3.10107422 16.31982422 C6.12720296 18.28763471 9.17994427 19.88204034 12.4375 21.4375 C14.22197741 22.37452289 16.00641801 23.31162725 17.78823853 24.25369263 C19.63346177 25.22132955 21.48901899 26.16634826 23.34716797 27.10888672 C29.02513994 30.01486749 34.49899989 33.27549325 40 36.5 C42.16310358 37.75035831 44.32717039 38.99905169 46.4921875 40.24609375 C47.56436523 40.86468262 48.63654297 41.48327148 49.74121094 42.12060547 C53.01699566 44.00980166 56.29355893 45.89764109 59.5703125 47.78515625 C70.99245466 54.3666153 82.40394259 60.96464384 93.77246094 67.63842773 C99.36902424 70.91483805 104.99548474 74.12937279 110.65625 77.29296875 C112.59517431 78.38170127 114.53372584 79.47109522 116.472229 80.56057739 C117.7315007 81.26502226 118.992996 81.96550816 120.2567749 82.66183472 C122.0176629 83.63212652 123.77073778 84.61655672 125.5234375 85.6015625 C127.0381665 86.44195068 127.0381665 86.44195068 128.58349609 87.29931641 C131.07316983 89.05149536 131.96290608 90.18129113 133 93 C131 95 131 95 129.125 95.23046875 C128.073125 95.20919922 128.073125 95.20919922 127 95.1875 C126.29875 95.18105469 125.5975 95.17460937 124.875 95.16796875 C123 95 123 95 121 94 C121 98.62 121 103.24 121 108 C117.28770017 106.51508007 114.09399307 105.03192692 110.640625 103.09375 C109.61654541 102.52019775 108.59246582 101.94664551 107.53735352 101.35571289 C106.45252686 100.74332764 105.3677002 100.13094238 104.25 99.5 C103.12327881 98.86634521 101.99655762 98.23269043 100.83569336 97.57983398 C94.04482257 93.74999436 87.29015254 89.86664399 80.5847168 85.8894043 C74.27275475 82.14695337 67.92058399 78.47596521 61.5625 74.8125 C60.45527588 74.17449463 59.34805176 73.53648926 58.20727539 72.87915039 C55.93662932 71.57110523 53.66587642 70.26324552 51.39501953 68.95556641 C44.85179882 65.18660352 38.31219766 61.41136501 31.77197266 57.63720703 C25.11236684 53.79454716 18.45076941 49.95536971 11.78759766 46.11889648 C8.51879295 44.23436697 5.25336859 42.34408576 1.98828125 40.453125 C-1.74949478 38.29005741 -5.49955293 36.15326641 -9.26953125 34.046875 C-10.05706787 33.60061768 -10.84460449 33.15436035 -11.65600586 32.69458008 C-13.07366237 31.89146495 -14.49718001 31.09855284 -15.92797852 30.3190918 C-20.24945758 27.84830989 -22.82892803 25.50033764 -25 21 C-25.76851293 17.84527566 -25.59385365 16.36852577 -25 13 C-22.96724481 10.8011973 -20.59266569 9.58634164 -17.9375 8.25 C-17.28072266 7.89035156 -16.62394531 7.53070313 -15.94726562 7.16015625 C-14.62978805 6.44106011 -13.30465169 5.73581518 -11.97216797 5.04492188 C-10.00382944 4.00202897 -8.10222328 2.87855273 -6.19140625 1.734375 C-3 0 -3 0 0 0 Z " fill="#93B2F9" transform="translate(41,379)"/>
<path d="M0 0 C3.3914178 0.67013395 6.0112775 1.97546055 9.015625 3.66796875 C10.0068335 4.22411865 10.99804199 4.78026855 12.01928711 5.35327148 C13.61848999 6.2612146 13.61848999 6.2612146 15.25 7.1875 C16.36318604 7.815354 17.47637207 8.44320801 18.62329102 9.09008789 C28.10260671 14.45302396 37.51428458 19.9299443 46.91015625 25.4375 C53.21570475 29.13213343 59.54298224 32.78846027 65.875 36.4375 C66.94862793 37.05641113 68.02225586 37.67532227 69.12841797 38.31298828 C73.55298745 40.8629532 77.97827211 43.41167469 82.40380859 45.95996094 C88.97026827 49.7414168 95.53356985 53.52823695 102.09277344 57.32226562 C104.77937799 58.87268101 107.47101495 60.41393906 110.1640625 61.953125 C111.6720694 62.82257959 113.17989687 63.69234548 114.6875 64.5625 C115.33984619 64.93157471 115.99219238 65.30064941 116.66430664 65.6809082 C125.77291062 70.97128939 131.46438596 76.86203859 135 87 C135.42216662 90.4128838 135.4074821 93.58922394 135 97 C131.19037936 95.575794 127.75596032 93.82091117 124.23046875 91.796875 C123.10688965 91.15355225 121.98331055 90.51022949 120.82568359 89.84741211 C119.61288279 89.14840128 118.40015681 88.44926061 117.1875 87.75 C115.92540022 87.0252852 114.66319169 86.30075976 113.40087891 85.57641602 C104.55723637 80.49625437 95.74132033 75.36874397 86.93774414 70.21948242 C79.68117554 65.97543655 72.40805828 61.76091771 65.125 57.5625 C64.04605469 56.94052734 62.96710938 56.31855469 61.85546875 55.67773438 C58.57057008 53.78470874 55.28534897 51.89224402 52 50 C38.79967382 42.39708216 25.60407636 34.78625349 12.4375 27.125 C11.40157715 26.52357178 10.3656543 25.92214355 9.29833984 25.30249023 C8.35297363 24.75149658 7.40760742 24.20050293 6.43359375 23.6328125 C5.59884521 23.14699707 4.76409668 22.66118164 3.90405273 22.16064453 C2 21 2 21 1 20 C0.92728259 17.64686445 0.91629132 15.29166332 0.9375 12.9375 C0.94652344 11.64714844 0.95554688 10.35679687 0.96484375 9.02734375 C0.97644531 8.02832031 0.98804688 7.02929688 1 6 C0.34 5.67 -0.32 5.34 -1 5 C-0.67 3.35 -0.34 1.7 0 0 Z " fill="#F9F7F2" transform="translate(40,373)"/>
<path d="M0 0 C3.16279085 1.4331396 6.08813038 3.1126771 9 5 C9 5.33 9 5.66 9 6 C7.75347656 6.36480469 6.50695312 6.72960937 5.22265625 7.10546875 C-0.78497625 9.1150435 -6.08658686 12.16599284 -11.5625 15.3125 C-12.65312744 15.93133057 -13.74375488 16.55016113 -14.86743164 17.18774414 C-24.24050297 22.52189714 -33.55721909 27.9535119 -42.859375 33.41015625 C-48.31527205 36.60749579 -53.79353129 39.7647754 -59.27685547 42.91479492 C-71.09286461 49.68761454 -71.09286461 49.68761454 -82.8125 56.625 C-83.72644531 57.17414063 -84.64039062 57.72328125 -85.58203125 58.2890625 C-89.68630738 61.19321911 -93.02445024 64.61058145 -95.6875 68.875 C-96.08324219 69.49117188 -96.47898437 70.10734375 -96.88671875 70.7421875 C-99.43839696 75.91716997 -100.25017214 80.96138536 -100.24291992 86.68212891 C-100.24599655 87.96681061 -100.24907318 89.25149231 -100.25224304 90.57510376 C-100.24534548 91.95892518 -100.23807852 93.34274481 -100.23046875 94.7265625 C-100.22927478 96.16189533 -100.22882425 97.59722895 -100.2290802 99.03256226 C-100.22752201 102.02989648 -100.21928226 105.02711015 -100.20581055 108.02441406 C-100.188791 111.85870399 -100.18499753 115.69286215 -100.18575573 119.52718544 C-100.18548338 122.48692065 -100.17999219 125.4466273 -100.17275429 128.406353 C-100.16958204 129.82009033 -100.1676036 131.23383087 -100.16686058 132.64757156 C-100.16468341 134.62394634 -100.15512682 136.60030879 -100.14526367 138.57666016 C-100.14145187 139.69916168 -100.13764008 140.82166321 -100.13371277 141.97817993 C-100.01038971 144.76519949 -99.63428212 147.28863272 -99 150 C-103.50289035 148.74337944 -106.5433334 147.16038089 -110 144 C-111.70249658 140.59500684 -111.24542974 136.70360998 -111.31640625 132.953125 C-111.33718735 132.03150574 -111.35796844 131.10988647 -111.37937927 130.16033936 C-111.42274063 128.19320443 -111.46377018 126.22601697 -111.50268555 124.25878906 C-111.56088503 121.33123617 -111.62642117 118.40392705 -111.69335938 115.4765625 C-111.82179301 109.65136013 -111.91574183 103.82598851 -112 98 C-112.02498566 96.50303589 -112.02498566 96.50303589 -112.05047607 94.97583008 C-112.09615908 92.02034886 -112.12645087 89.0650891 -112.15234375 86.109375 C-112.16745499 85.2255011 -112.18256622 84.3416272 -112.19813538 83.43096924 C-112.23579554 75.7629395 -111.37898369 68.46370757 -107.3125 61.8125 C-106.85488281 61.03519531 -106.39726563 60.25789063 -105.92578125 59.45703125 C-100.16925558 52.1124985 -92.21929385 48.03378973 -84.1875 43.5625 C-82.93911445 42.85969529 -81.69123896 42.15598388 -80.44384766 41.45141602 C-77.88148163 40.00442923 -75.31747061 38.56042385 -72.75244141 37.11816406 C-67.10153394 33.93489624 -61.48869873 30.68579413 -55.875 27.4375 C-53.74873669 26.20956827 -51.62243449 24.98170389 -49.49609375 23.75390625 C-46.7506458 22.16756375 -44.00529263 20.58105752 -41.2600708 18.99432373 C-38.29813364 17.28233729 -35.33604475 15.57061486 -32.37353516 13.85961914 C-30.15276842 12.57692674 -27.93236529 11.29360452 -25.71240234 10.00952148 C-22.81144869 8.33407841 -19.90598694 6.66669178 -17 5 C-15.71246826 4.24952393 -15.71246826 4.24952393 -14.39892578 3.48388672 C-13.60856934 3.03029785 -12.81821289 2.57670898 -12.00390625 2.109375 C-11.32271729 1.71459961 -10.64152832 1.31982422 -9.93969727 0.91308594 C-6.56535295 -0.67534046 -3.60101975 -0.88661471 0 0 Z " fill="#4075C2" transform="translate(115,7)"/>
<path d="M0 0 C2.80318329 1.48872434 5.48120605 3.0634727 8 5 C8 5.33 8 5.66 8 6 C6.8965625 6.21140625 5.793125 6.4228125 4.65625 6.640625 C-0.92354254 8.04536224 -5.56801652 10.8599772 -10.5 13.75 C-11.50264893 14.32709717 -12.50529785 14.90419434 -13.53833008 15.4987793 C-16.69860405 17.32175891 -19.85016662 19.15904843 -23 21 C-24.95177955 22.13679321 -26.90360155 23.27351354 -28.85546875 24.41015625 C-31.78757763 26.11940441 -34.71845616 27.8306446 -37.64648438 29.546875 C-44.35073405 33.47321644 -51.08780798 37.33694608 -57.84423828 41.17236328 C-63.57528566 44.42660564 -69.28903215 47.7106631 -75 51 C-75.88381348 51.5057959 -76.76762695 52.0115918 -77.67822266 52.53271484 C-87.81706347 58.37547158 -96.14317415 63.90230249 -100.35429382 75.35934448 C-101.7817694 81.1970945 -101.38231368 87.32005111 -101.328125 93.296875 C-101.32506214 94.77801318 -101.32319003 96.25915425 -101.32244873 97.74029541 C-101.31786738 100.83006986 -101.30352151 103.91958052 -101.28125 107.00927734 C-101.25287004 110.9658316 -101.24202586 114.92217973 -101.2375679 118.87882614 C-101.23340982 121.93117318 -101.22359066 124.98347885 -101.21169281 128.03580475 C-101.20600624 129.49502485 -101.20124226 130.95424885 -101.19742584 132.41347504 C-101.19054066 134.44982797 -101.17600732 136.48615069 -101.16113281 138.52246094 C-101.15430481 139.67969666 -101.14747681 140.83693237 -101.14044189 142.02923584 C-101.02189808 144.53679032 -100.73308874 146.61314635 -100 149 C-104.00833116 148.38333367 -106.77995678 146.38003195 -110 144 C-112.41462762 140.37805857 -112.27391185 138.64661914 -112.32226562 134.33227539 C-112.33716034 133.32177628 -112.33716034 133.32177628 -112.35235596 132.29086304 C-112.38158151 130.05975236 -112.39520682 127.82892703 -112.40625 125.59765625 C-112.41776364 124.03885395 -112.42927896 122.48005166 -112.4407959 120.92124939 C-112.46181716 117.64694912 -112.47349849 114.37274693 -112.48046875 111.09838867 C-112.49137578 106.932309 -112.53928957 102.76755756 -112.59641266 98.60189152 C-112.63396149 95.3767694 -112.64409249 92.15195592 -112.6471405 88.92663383 C-112.65313908 87.393008 -112.66900937 85.85938399 -112.69551086 84.32597542 C-112.87104867 73.37816005 -111.5025089 64.13517837 -103.88075256 55.63708496 C-98.36397469 50.29594089 -91.73442535 46.63918602 -85.0625 42.9375 C-83.33251117 41.95878122 -81.60253188 40.98004509 -79.87313843 40.00027466 C-78.09189447 38.99283499 -76.30811613 37.99000359 -74.52392578 36.98779297 C-68.98861292 33.87278962 -63.49717885 30.68163079 -58 27.5 C-55.8516943 26.2614901 -53.70325618 25.02320988 -51.5546875 23.78515625 C-47.62126249 21.51641924 -43.69167069 19.24133422 -39.76715088 16.95724487 C-38.01729819 15.93911289 -36.26659057 14.92246667 -34.515625 13.90625 C-32.33423929 12.63963894 -30.15441975 11.3703247 -27.9765625 10.09765625 C-6.48046711 -2.36786298 -6.48046711 -2.36786298 0 0 Z " fill="#4075C2" transform="translate(379,13)"/>
<path d="M0 0 C11.04658186 5.23842206 21.55036955 11.1757997 32.0390625 17.44921875 C38.2389065 21.15616165 44.48893806 24.77266167 50.75 28.375 C51.83716309 29.00092041 52.92432617 29.62684082 54.04443359 30.27172852 C56.25794538 31.54574491 58.47165048 32.81942551 60.68554688 34.09277344 C66.12650565 37.22364924 71.56305248 40.36216542 77 43.5 C79.16664498 44.75003758 81.33331166 46.00003756 83.5 47.25 C87.83333333 49.75 92.16666667 52.25 96.5 54.75 C97.57443359 55.36979736 98.64886719 55.98959473 99.75585938 56.62817383 C101.90323373 57.86718039 104.05037267 59.10659503 106.19726562 60.34643555 C111.2907183 63.2872612 116.38655143 66.22372619 121.49072266 69.14590454 C123.9115662 70.53218831 126.33107889 71.92078547 128.75048828 73.30957031 C130.46647617 74.29328204 132.18439193 75.27362835 133.90234375 76.25390625 C134.93488281 76.846875 135.96742188 77.43984375 137.03125 78.05078125 C137.94455078 78.57325439 138.85785156 79.09572754 139.79882812 79.6340332 C142 81 142 81 144 83 C144.1953125 86.0390625 144.1953125 86.0390625 144.125 89.625 C144.10695312 90.81351562 144.08890625 92.00203125 144.0703125 93.2265625 C144.04710937 94.14179688 144.02390625 95.05703125 144 96 C140.21481268 94.5839494 136.80250679 92.84578935 133.30078125 90.83203125 C131.63063965 89.87466064 131.63063965 89.87466064 129.92675781 88.89794922 C128.72195086 88.20289367 127.51719971 87.5077414 126.3125 86.8125 C125.05711328 86.09105251 123.80157708 85.36986506 122.54589844 84.64892578 C119.31879708 82.7949706 116.09403586 80.93698535 112.86993408 79.07781982 C111.09079075 78.05233129 109.31095951 77.02805128 107.53076172 76.00439453 C96.03907238 69.39637703 84.56794818 62.75456011 73.125 56.0625 C64.17195271 50.82896403 55.18960194 45.64852908 46.1875 40.5 C45.60494446 40.16638458 45.02238892 39.83276917 44.42218018 39.48904419 C35.41036347 34.3303234 26.34178841 29.29501848 17.1640625 24.4375 C15.65088211 23.62529719 14.13785904 22.81280122 12.625 22 C11.47451172 21.40058594 11.47451172 21.40058594 10.30078125 20.7890625 C4.81438195 17.81370951 0.85947028 14.71894057 -2 9 C-2.1875 5.5 -2.1875 5.5 -2 2 C-1.34 1.34 -0.68 0.68 0 0 Z " fill="#93B2F8" transform="translate(18,346)"/>
<path d="M0 0 C-0.09075806 1.38650757 -0.09075806 1.38650757 -0.18334961 2.80102539 C-0.36532905 10.15628166 -0.36532905 10.15628166 3.10107422 16.31982422 C6.12720296 18.28763471 9.17994427 19.88204034 12.4375 21.4375 C14.22197741 22.37452289 16.00641801 23.31162725 17.78823853 24.25369263 C19.63346177 25.22132955 21.48901899 26.16634826 23.34716797 27.10888672 C29.02513994 30.01486749 34.49899989 33.27549325 40 36.5 C42.16310358 37.75035831 44.32717039 38.99905169 46.4921875 40.24609375 C47.56436523 40.86468262 48.63654297 41.48327148 49.74121094 42.12060547 C53.01699566 44.00980166 56.29355893 45.89764109 59.5703125 47.78515625 C70.99245466 54.3666153 82.40394259 60.96464384 93.77246094 67.63842773 C99.36902424 70.91483805 104.99548474 74.12937279 110.65625 77.29296875 C112.59517431 78.38170127 114.53372584 79.47109522 116.472229 80.56057739 C117.7315007 81.26502226 118.992996 81.96550816 120.2567749 82.66183472 C122.0176629 83.63212652 123.77073778 84.61655672 125.5234375 85.6015625 C127.0381665 86.44195068 127.0381665 86.44195068 128.58349609 87.29931641 C131.07316983 89.05149536 131.96290608 90.18129113 133 93 C131 95 131 95 127.4375 95.4140625 C122.18362221 95.26523413 118.43714096 93.00435021 114 90.375 C112.70956787 89.63781738 112.70956787 89.63781738 111.39306641 88.88574219 C108.58475286 87.27481837 105.79203653 85.63894931 103 84 C101.09162781 82.89239831 99.18276862 81.78563532 97.2734375 80.6796875 C93.26499679 78.35230292 89.263323 76.01375426 85.265625 73.66796875 C78.90228965 69.93674029 72.51650445 66.24521942 66.125 62.5625 C65.04524902 61.94020508 63.96549805 61.31791016 62.85302734 60.67675781 C60.66285466 59.41471274 58.47258757 58.15283148 56.28222656 56.89111328 C51.93541749 54.38662183 47.59007128 51.87959935 43.24487305 49.37231445 C41.08239459 48.12454925 38.919797 46.8769905 36.75708008 45.62963867 C31.30108189 42.48278408 25.84650542 39.33350926 20.39453125 36.1796875 C6.30977487 28.03592925 -7.81899898 19.97502975 -22 12 C-18.17137865 8.76823597 -14.21163979 6.21503735 -9.875 3.75 C-9.25496094 3.38648438 -8.63492188 3.02296875 -7.99609375 2.6484375 C-5.12283735 1.00481126 -3.36543293 0 0 0 Z " fill="#B0C4FE" transform="translate(41,379)"/>
<path d="M0 0 C-0.40030841 9.94450371 -0.84358977 19.88183979 -1.51171875 29.8125 C-1.55673523 30.48788818 -1.60175171 31.16327637 -1.64813232 31.85913086 C-1.86952245 35.17379204 -2.09800912 38.4874832 -2.33935547 41.80078125 C-3.70185049 61.9729192 -2.78462865 81.81336617 -1.0625 101.9375 C-0.87740546 104.16724733 -0.69315798 106.39706515 -0.50976562 108.62695312 C-0.42020599 109.71392487 -0.33064636 110.80089661 -0.2383728 111.92080688 C0.09972585 116.0326255 0.43674736 120.14453168 0.77264404 124.25653076 C0.98197935 126.78254755 1.20157306 129.30748475 1.42236328 131.83251953 C1.53354135 133.20209472 1.64411347 134.57171931 1.75390625 135.94140625 C1.85131104 137.08424072 1.94871582 138.2270752 2.04907227 139.40454102 C2 142 2 142 0 144 C-1.9375 143.9375 -1.9375 143.9375 -4 143 C-11.05881068 132.8099733 -10.32176949 120.06706601 -9.71362305 108.23535156 C-9.53308958 102.45645234 -10.01767989 98.40336707 -12.50390625 93.14453125 C-15.73593231 86.16006815 -15.42778612 79.88138553 -15.0625 72.3125 C-14.44721993 61.16884729 -14.44721993 61.16884729 -18.06787109 50.83789062 C-19.73754497 47.54577304 -19.72715612 44.50745891 -19 41 C-17.26393122 36.09288307 -15.18248762 31.34116676 -12.8359375 26.6953125 C-11.84268154 23.49275823 -11.92058443 20.79099813 -11.9765625 17.46240234 C-12.07676568 7.20201446 -12.07676568 7.20201446 -8.75 3.48828125 C-2.80387409 0 -2.80387409 0 0 0 Z " fill="#29282B" transform="translate(486,320)"/>
<path d="M0 0 C0.86238281 0.33902344 1.72476563 0.67804688 2.61328125 1.02734375 C4.6875 2.0625 4.6875 2.0625 5.6875 4.0625 C5.64976222 6.89283332 5.54513702 9.67759005 5.375 12.5 C5.33955078 13.27666016 5.30410156 14.05332031 5.26757812 14.85351562 C5.04640982 18.68599916 4.85530318 20.81079523 2.6875 24.0625 C-0.140625 25.08984375 -0.140625 25.08984375 -3.5625 26 C-12.30228355 28.56431012 -18.1433746 32.52165824 -23.3125 40.0625 C-24.69341068 43.11380405 -25.88565626 46.1620362 -26.9765625 49.328125 C-29.53214671 54.55885292 -34.21246442 56.68248339 -39.3125 59.0625 C-40.3025 59.5575 -40.3025 59.5575 -41.3125 60.0625 C-41.82708733 45.00605602 -42.28223007 21.74324557 -32.23828125 9.54296875 C-28.526389 6.3960374 -24.61683259 4.04907537 -20.375 1.6875 C-19.19647461 0.99333984 -19.19647461 0.99333984 -17.99414062 0.28515625 C-11.13125013 -3.56265683 -7.22853584 -2.90677086 0 0 Z " fill="#DCE8FD" transform="translate(104.3125,123.9375)"/>
<path d="M0 0 C-1.24785435 5.63317107 -2.67731514 11.14810247 -4.546875 16.60546875 C-8.22251328 27.37688572 -11.0733331 38.1429265 -13.25 49.3125 C-13.48372314 50.49497314 -13.71744629 51.67744629 -13.95825195 52.89575195 C-18.21371331 75.68949506 -19.74251697 98.73807237 -21.0602417 121.84814453 C-21.27609945 125.6041729 -21.50079448 129.35967326 -21.72460938 133.11523438 C-22.15808822 140.40968358 -22.58225727 147.70463081 -23 155 C-26.06561068 154.40872918 -26.91080052 154.09174804 -29.1875 151.75 C-32.53824351 146.6661133 -32.18257135 141.21209354 -32.1875 135.3125 C-32.19974609 134.56033203 -32.21199219 133.80816406 -32.22460938 133.03320312 C-32.23748973 127.98839844 -31.533447 123.44080944 -30.46118164 118.52075195 C-29.69670732 114.34224622 -29.70093741 110.17465027 -29.625 105.9375 C-29.35655514 97.36436747 -28.43874315 89.02770547 -27.0625 80.5625 C-26.89250488 79.51505615 -26.72250977 78.4676123 -26.54736328 77.38842773 C-25.85514238 73.32121754 -25.1483554 69.45635968 -23.87109375 65.52734375 C-23.04709978 62.19072243 -22.94833603 59.72944749 -23.01953125 56.32421875 C-23.12845065 49.8999729 -22.07140187 44.06488509 -20.6875 37.8125 C-20.22200697 35.62411208 -19.75847173 33.43530683 -19.296875 31.24609375 C-19.07193359 30.18632324 -18.84699219 29.12655273 -18.61523438 28.03466797 C-18.06306609 25.311076 -17.57758899 22.59172487 -17.140625 19.84765625 C-17.01856689 19.08283936 -16.89650879 18.31802246 -16.77075195 17.5300293 C-16.46135762 15.52927927 -16.16565084 13.52642568 -15.87109375 11.5234375 C-14.82549019 7.29413519 -13.46706106 4.58968702 -11 1 C-7.16623951 -0.02690013 -3.96372691 0 0 0 Z " fill="#29282B" transform="translate(458,331)"/>
<path d="M0 0 C0.88638059 12.50781492 -2.78503131 21.58499149 -9.375 32 C-9.83302002 32.73041504 -10.29104004 33.46083008 -10.76293945 34.21337891 C-14.09622349 39.26352448 -17.43110784 43.23221163 -23.6328125 44.56640625 C-30.34601884 44.55588398 -30.34601884 44.55588398 -33.5 41.875 C-36.36762974 36.37870966 -37.33907289 31.27243294 -37.625 25.125 C-37.66367187 24.43664062 -37.70234375 23.74828125 -37.7421875 23.0390625 C-37.83548166 21.35976754 -37.91878238 19.67992233 -38 18 C-40.41645782 17.83312552 -40.41645782 17.83312552 -43 18 C-43.66 18.66 -44.32 19.32 -45 20 C-45.99 20 -46.98 20 -48 20 C-47.98839844 19.26394531 -47.97679687 18.52789062 -47.96484375 17.76953125 C-47.95582031 16.79371094 -47.94679688 15.81789062 -47.9375 14.8125 C-47.92589844 13.84957031 -47.91429687 12.88664063 -47.90234375 11.89453125 C-47.99513378 9.14423487 -48.37888315 6.67520409 -49 4 C-48.19175781 4.32484375 -48.19175781 4.32484375 -47.3671875 4.65625 C-40.58134441 6.95365142 -34.03815472 7.36121296 -26.9375 7.4375 C-26.01630371 7.45941406 -25.09510742 7.48132813 -24.14599609 7.50390625 C-16.6838993 7.48265807 -9.88436431 5.93972062 -3.83959961 1.36499023 C-2 0 -2 0 0 0 Z " fill="#373639" transform="translate(479,135)"/>
<path d="M0 0 C1.40927181 0.81039997 2.80409246 1.64619749 4.1875 2.5 C10.26993667 5.82114327 16.56450424 5.6103768 23.33666992 5.63476562 C30.24512624 5.71143396 35.64474741 6.7352045 41.5 10.6875 C43.67564365 14.0416173 43.63118857 17.17484517 43 21 C41.7385601 23.90131176 40.85565707 25.46315306 38.17578125 27.14453125 C32.58922447 29.34104101 25.93890841 27.05169329 20.4375 25.375 C14.45792302 23.64117641 9.27333553 23.6088324 3.5 26.0625 C-0.32049704 27.49518639 -3.97435928 27.59909717 -8 27 C-11.59891173 24.85596748 -13.47916285 22.86212593 -15 19 C-15.30078125 15.94140625 -15.30078125 15.94140625 -15.3125 12.5625 C-15.32925781 11.45003906 -15.34601563 10.33757812 -15.36328125 9.19140625 C-14.89306574 5.06058826 -13.5551163 2.2671318 -10.3125 -0.375 C-6.71373234 -1.34763991 -3.53445612 -0.98765997 0 0 Z " fill="#C7D8EF" transform="translate(128,264)"/>
<path d="M0 0 C1.90600586 1.05639648 1.90600586 1.05639648 3.71484375 2.37109375 C4.39490479 2.85843994 5.07496582 3.34578613 5.77563477 3.84790039 C6.84575806 4.6347522 6.84575806 4.6347522 7.9375 5.4375 C9.44518643 6.52882002 10.95300112 7.61996287 12.4609375 8.7109375 C13.21600586 9.26104492 13.97107422 9.81115234 14.74902344 10.37792969 C16.88905308 11.92005083 19.05020881 13.42378916 21.2265625 14.9140625 C21.8750415 15.36209229 22.52352051 15.81012207 23.19165039 16.27172852 C24.41783362 17.11771974 25.64866567 17.95702099 26.88452148 18.78881836 C28.53515625 19.94140625 28.53515625 19.94140625 31 22 C31 22.99 31 23.98 31 25 C27.59382034 26.87393409 24.17358467 28.72058452 20.75 30.5625 C19.29787109 31.36204102 19.29787109 31.36204102 17.81640625 32.17773438 C16.88183594 32.67724609 15.94726562 33.17675781 14.984375 33.69140625 C14.12553711 34.15748291 13.26669922 34.62355957 12.38183594 35.10375977 C9.69707718 36.11398418 8.62004347 36.07759852 6 35 C4.37014176 33.49238113 2.99735658 31.87188249 1.5625 30.1796875 C1.046875 29.79039062 0.53125 29.40109375 0 29 C-0.61254639 29.19368164 -1.22509277 29.38736328 -1.85620117 29.58691406 C-4 30 -4 30 -5.90356445 28.99951172 C-6.550271 28.48146973 -7.19697754 27.96342773 -7.86328125 27.4296875 C-8.58580078 26.8625 -9.30832031 26.2953125 -10.05273438 25.7109375 C-10.79845703 25.10507813 -11.54417969 24.49921875 -12.3125 23.875 C-13.78697585 22.70473997 -15.26222774 21.535457 -16.73828125 20.3671875 C-17.44936035 19.79709961 -18.16043945 19.22701172 -18.89306641 18.63964844 C-20.89787105 17.07947834 -22.94783724 15.63073862 -25.04296875 14.1953125 C-26.01878906 13.47085938 -26.99460937 12.74640625 -28 12 C-28 11.34 -28 10.68 -28 10 C-24.28178731 8.12324745 -20.54892346 6.27769416 -16.8125 4.4375 C-15.75740234 3.90447266 -14.70230469 3.37144531 -13.61523438 2.82226562 C-12.59365234 2.32275391 -11.57207031 1.82324219 -10.51953125 1.30859375 C-9.11344604 0.60947876 -9.11344604 0.60947876 -7.67895508 -0.10375977 C-4.56577468 -1.1452694 -3.09061142 -1.02598943 0 0 Z " fill="#FCFDFE" transform="translate(353,200)"/>
<path d="M0 0 C0.1875 3.3125 0.1875 3.3125 0 7 C-0.46019531 7.42796875 -0.92039063 7.8559375 -1.39453125 8.296875 C-3.79846378 10.84703214 -4.08577648 13.55361686 -4.875 16.9375 C-6.3672197 23.09935758 -8.40263297 28.6729617 -11.14453125 34.4140625 C-12.35594213 37.36168776 -12.35594213 37.36168776 -11 42 C-7.04 42.99 -3.08 43.98 1 45 C-0.37313433 51.86567164 -0.37313433 51.86567164 -3 54 C-6.8942885 54.177349 -10.59520115 53.77115637 -14.03515625 51.8828125 C-16.53180898 50.76105601 -17.46809785 51.05636916 -20 52 C-22.04278639 54.92348678 -23.80757597 57.88306665 -25.55664062 60.984375 C-28.43245217 65.80896006 -28.43245217 65.80896006 -31.78515625 66.9375 C-32.88150391 66.9684375 -32.88150391 66.9684375 -34 67 C-35.23925781 63.51554362 -35.23925781 63.51554362 -34.1796875 61.23242188 C-33.74914063 60.65041016 -33.31859375 60.06839844 -32.875 59.46875 C-32.41609375 58.82292969 -31.9571875 58.17710938 -31.484375 57.51171875 C-30.49479167 56.17057292 -29.50520833 54.82942708 -28.515625 53.48828125 C-28.05671875 52.84246094 -27.5978125 52.19664063 -27.125 51.53125 C-26.69445312 50.94923828 -26.26390625 50.36722656 -25.8203125 49.76757812 C-24.80716338 48.00343356 -24.80716338 48.00343356 -25.29272461 45.91577148 C-26.43778624 42.81418411 -28.21721037 40.12494061 -29.94140625 37.31640625 C-31.1687552 34.63073123 -31.37233563 32.92065874 -31 30 C-26.89189189 26 -26.89189189 26 -24 26 C-23.01 28.97 -22.02 31.94 -21 35 C-19.515 34.505 -19.515 34.505 -18 34 C-16.81390788 31.72033325 -16.81390788 31.72033325 -15.9375 28.9375 C-15.61652344 28.01839844 -15.29554687 27.09929687 -14.96484375 26.15234375 C-13.83492766 22.46067459 -12.90874421 18.75210389 -12 15 C-15.27204416 16.78946197 -18.54242184 18.58194823 -21.8125 20.375 C-22.74126953 20.88289063 -23.67003906 21.39078125 -24.62695312 21.9140625 C-25.51962891 22.40390625 -26.41230469 22.89375 -27.33203125 23.3984375 C-28.56530151 24.07398682 -28.56530151 24.07398682 -29.82348633 24.76318359 C-31.59282762 25.76862196 -33.30672656 26.87115104 -35 28 C-35.99 28 -36.98 28 -38 28 C-38.40234375 24.75 -38.40234375 24.75 -38 21 C-35.77491119 19.26696838 -34.05488354 18.17964122 -31.5625 17 C-29.07612192 15.81576092 -27.25532725 14.67726861 -25 13 C-24.24276028 9.47593677 -24.24276028 9.47593677 -24 6 C-22.4765625 4.1875 -22.4765625 4.1875 -20.625 3 C-20.01914063 2.5875 -19.41328125 2.175 -18.7890625 1.75 C-17 1 -17 1 -14 2 C-13.3125 4.0625 -13.3125 4.0625 -13 6 C-11.96939453 5.3503125 -11.96939453 5.3503125 -10.91796875 4.6875 C-10.01691406 4.130625 -9.11585937 3.57375 -8.1875 3 C-7.29417969 2.443125 -6.40085937 1.88625 -5.48046875 1.3125 C-3 0 -3 0 0 0 Z " fill="#F9FAFD" transform="translate(91,53)"/>
<path d="M0 0 C0.66 0 1.32 0 2 0 C2 0.66 2 1.32 2 2 C2.556875 2.268125 3.11375 2.53625 3.6875 2.8125 C4.8321875 3.4003125 4.8321875 3.4003125 6 4 C6.86625 4.433125 7.7325 4.86625 8.625 5.3125 C11.52240795 7.3711846 11.98749561 8.62816934 13 12 C12.9765625 14.89453125 12.9765625 14.89453125 12.625 17.8125 C12.51414062 18.78832031 12.40328125 19.76414063 12.2890625 20.76953125 C12.14597656 21.87361328 12.14597656 21.87361328 12 23 C12.721875 22.505 13.44375 22.01 14.1875 21.5 C17.15792654 19.91577251 18.6987658 19.6331962 22 20 C23.90682351 21.90682351 23.22432553 25.46057516 23.3125 28 C23.6161812 34.25970318 24.31419713 41.31419713 29 46 C35.05044668 46.59251079 39.73950997 46.32241475 45 43 C44.6169767 45.53342553 44.23640386 46.76417273 42.3984375 48.59765625 C34.60244288 54.24147475 28.6525426 56.5243836 19 56 C18.67 53.69 18.34 51.38 18 49 C16.1746875 49.0928125 16.1746875 49.0928125 14.3125 49.1875 C9.14840528 49.1692845 6.58585373 47.44992341 2.8125 44 C-1.73365278 36.47533333 -1.29503337 26.79607279 -1.1875 18.25 C-1.18685547 17.26128906 -1.18621094 16.27257812 -1.18554688 15.25390625 C-1.15439161 10.06828595 -0.89205259 5.10967723 0 0 Z " fill="#F5B1B1" transform="translate(419,132)"/>
<path d="M0 0 C0.99 0 1.98 0 3 0 C3.05451714 2.04136395 3.09302485 4.08315856 3.125 6.125 C3.14820313 7.26195312 3.17140625 8.39890625 3.1953125 9.5703125 C2.99523027 13.08375639 2.22154945 15.71822536 1 19 C0.53515775 21.05858709 0.07398383 23.11814967 -0.359375 25.18359375 C-1.02053448 28.0902766 -1.79314392 30.95920507 -2.56835938 33.8371582 C-4.92429898 42.726697 -6.62430245 50.30167413 -3 59 C-3 64.18310009 -5.15443963 66.85417375 -8.4296875 70.58203125 C-10 72 -10 72 -13 73 C-13.86419223 70.40742331 -14.17580932 68.65962293 -14.31640625 65.98828125 C-14.35830078 65.23095703 -14.40019531 64.47363281 -14.44335938 63.69335938 C-14.48267578 62.90767578 -14.52199219 62.12199219 -14.5625 61.3125 C-14.60568359 60.51521484 -14.64886719 59.71792969 -14.69335938 58.89648438 C-14.79927368 56.93118553 -14.90012551 54.96561504 -15 53 C-16.546875 53.0928125 -16.546875 53.0928125 -18.125 53.1875 C-24.81739053 52.86367465 -29.03659492 49.4539887 -33.9375 45.1875 C-34.76677002 44.4749707 -34.76677002 44.4749707 -35.61279297 43.74804688 C-41.97183644 38.23510207 -48.12512501 32.50196622 -54.21191406 26.69140625 C-55.93231539 25.06402498 -57.67716876 23.46764341 -59.4296875 21.875 C-60.45394782 20.91754615 -61.47743376 19.95926293 -62.5 19 C-63.3971875 18.175 -64.294375 17.35 -65.21875 16.5 C-67 14 -67 14 -66.78125 10.6875 C-66.5234375 9.800625 -66.265625 8.91375 -66 8 C-62.20436295 10.5304247 -60.13014308 13.26203844 -57.75 17.0625 C-54.66039071 21.66993044 -52.37690355 23.13724404 -47.0703125 24.44140625 C-42.64031398 25.63667 -40.31148139 28.5587347 -37.75 32.1875 C-34.39486618 35.61888686 -32.90882964 35.53275209 -28.3359375 35.72265625 C-25.05862956 36.11176806 -22.71306461 37.56258738 -19.86328125 39.14453125 C-17.2077467 40.36373894 -14.86710645 40.28671065 -12 40 C-7.58614406 29.38233734 -4.65256839 18.41223155 -2.67578125 7.109375 C-2.0849289 4.39077113 -1.38823821 2.38658823 0 0 Z " fill="#E4C602" transform="translate(421,234)"/>
<path d="M0 0 C3.13560335 3.63779911 4.66322242 7.6748805 6.390625 12.08984375 C6.85393219 13.26215294 6.85393219 13.26215294 7.32659912 14.45814514 C7.97527332 16.10678504 8.62057025 17.75675726 9.26269531 19.40795898 C10.24731942 21.93063219 11.25199936 24.44469733 12.2578125 26.95898438 C12.886662 28.56461699 13.51430724 30.17072188 14.140625 31.77734375 C14.44260803 32.52644516 14.74459106 33.27554657 15.0557251 34.04734802 C16.57327397 38.01362273 17.65962657 40.95524494 16 45 C13 47 13 47 10 47 C8.02 41.555 8.02 41.555 6 36 C-3.76136458 39.10996934 -3.76136458 39.10996934 -12 45 C-13.92247199 49.21460938 -14.56918582 53.68630975 -15.25390625 58.234375 C-16 62 -16 62 -17.33984375 63.953125 C-19.20357053 65.12836918 -20.86531542 65.51078427 -23 66 C-21.65727936 59.82937497 -20.22039514 53.6885863 -18.6875 47.5625 C-18.4716626 46.69923096 -18.2558252 45.83596191 -18.03344727 44.9465332 C-16.38920583 38.42614222 -14.65660119 31.93401244 -12.80102539 25.47045898 C-11.77679703 21.8906589 -10.82809697 18.32403517 -10.04296875 14.68359375 C-7.86434649 4.86995913 -7.86434649 4.86995913 -5.1953125 2.18359375 C-3.25 1.0625 -3.25 1.0625 0 0 Z " fill="#F7F9FD" transform="translate(338,63)"/>
<path d="M0 0 C1.96484375 1.390625 1.96484375 1.390625 3.9375 3.25 C8.8925546 7.39178845 13.95747736 8.75023482 20.15625 10.2734375 C23 11 23 11 24 12 C24.29629238 15.3332893 24.35806333 17.36912652 22.6875 20.3125 C21 22 21 22 18 23 C16.42495321 22.96991365 14.85067824 22.87456256 13.28125 22.73828125 C-0.10748676 21.54869502 -0.10748676 21.54869502 -12.8828125 25.0625 C-16.05162003 26.465662 -18.60317968 26.46623024 -22 26 C-28.94619666 23.19480519 -28.94619666 23.19480519 -31 20 C-31.65163081 13.91811242 -31.65163081 13.91811242 -29.77734375 11.27734375 C-27.40694173 9.5737801 -26.06384549 9.81949078 -23.1875 10.0625 C-17.32185478 10.22401777 -14.5534109 8.34730598 -10.2578125 4.3984375 C-9.65710938 3.85445313 -9.05640625 3.31046875 -8.4375 2.75 C-7.89996094 2.22921875 -7.36242187 1.7084375 -6.80859375 1.171875 C-4.34013775 -0.42755653 -2.89121803 -0.4283286 0 0 Z " fill="#C7D8EF" transform="translate(206,309)"/>
<path d="M0 0 C9.3384545 3.3306092 14.37063453 11.61430077 19 20 C23.71340528 30.16728511 26.63241789 41.9658606 23.0234375 52.98046875 C20.92330681 56.9294875 19.28241603 59.38113509 15 61 C8.95715488 61.86007223 4.36809309 60.74115392 -1 58 C-1 53.05 -1 48.1 -1 43 C1.5390625 43.09765625 4.078125 43.1953125 6.6171875 43.29296875 C7.40351563 43.19628906 8.18984375 43.09960938 9 43 C11.8956088 38.6565868 11.78883937 35.09658825 11 30 C9.03846963 24.65335367 7.05790948 19.45369769 2.3125 16.1015625 C0 14 0 14 -0.48828125 10.546875 C-0.43027344 9.29390625 -0.37226563 8.0409375 -0.3125 6.75 C-0.26738281 5.48671875 -0.22226563 4.2234375 -0.17578125 2.921875 C-0.11777344 1.95765625 -0.05976563 0.9934375 0 0 Z " fill="#6B96D4" transform="translate(163,430)"/>
<path d="M0 0 C1.03350586 0.06574219 1.03350586 0.06574219 2.08789062 0.1328125 C7.18087798 0.49337798 7.18087798 0.49337798 8.3125 1.625 C10.74077613 1.72568462 13.13448411 1.7637176 15.5625 1.75 C16.23152344 1.75386719 16.90054687 1.75773437 17.58984375 1.76171875 C21.2905363 1.75444823 24.71509947 1.50343501 28.3125 0.625 C29.91897124 12.63011615 29.91897124 12.63011615 27.3125 18.625 C18.77153169 21.47198944 9.79879867 19.57864338 1.3125 17.4375 C0.09336914 17.14335205 0.09336914 17.14335205 -1.15039062 16.84326172 C-6.27178249 15.45648416 -9.18395885 13.80598368 -12.6875 9.625 C-13.0175 9.295 -13.3475 8.965 -13.6875 8.625 C-13.875 5.6875 -13.875 5.6875 -13.6875 2.625 C-9.75542552 -1.30707448 -5.22962576 -0.39806856 0 0 Z " fill="#DAE6FB" transform="translate(406.6875,485.375)"/>
<path d="M0 0 C1.09564953 3.2086879 2.03755885 6.21408542 2.625 9.5625 C4.28119747 13.70299367 5.8809571 15.00467328 9.703125 17.125 C13.44325901 18.54981295 17.07357636 18.73572041 21 18 C21.99 17.34 22.98 16.68 24 16 C24.2765289 18.07997826 24.52030075 20.1643308 24.75 22.25 C24.88921875 23.41015625 25.0284375 24.5703125 25.171875 25.765625 C25 29 25 29 23.19140625 31.36328125 C20.32541524 33.50383425 18.5808835 33.9297866 15 34 C4.41140514 30.66655347 -6.90155909 21.10978284 -13 12 C-13.98371834 9.04884498 -14.09752757 7.40961578 -13.375 4.375 C-10.04112159 -1.38351725 -6.08647517 -1.31276915 0 0 Z " fill="#DAE6FB" transform="translate(464,446)"/>
<path d="M0 0 C9.14163809 4.39130047 17.24652544 10.62438956 25.29492188 16.72363281 C26.82794989 17.87120877 28.38900114 18.98111986 29.953125 20.0859375 C30.77296875 20.67632812 31.5928125 21.26671875 32.4375 21.875 C33.13746094 22.36742187 33.83742188 22.85984375 34.55859375 23.3671875 C36 25 36 25 36.453125 27.515625 C36 30 36 30 34.48828125 31.5546875 C33.41126953 32.20824219 33.41126953 32.20824219 32.3125 32.875 C31.49910156 33.36871094 30.68570313 33.86242187 29.84765625 34.37109375 C28.90792969 34.90863281 27.96820313 35.44617188 27 36 C25.35837891 36.97646484 25.35837891 36.97646484 23.68359375 37.97265625 C14.75700877 43.0808158 14.75700877 43.0808158 11.109375 42.69140625 C10.41328125 42.46324219 9.7171875 42.23507813 9 42 C10.25427596 38.23717212 11.23812632 38.0584387 14.69140625 36.30078125 C15.63564453 35.81416016 16.57988281 35.32753906 17.55273438 34.82617188 C18.54595703 34.32666016 19.53917969 33.82714844 20.5625 33.3125 C21.55958984 32.80138672 22.55667969 32.29027344 23.58398438 31.76367188 C26.05166741 30.50031262 28.52364085 29.24624331 31 28 C27.15776372 23.88331828 23.05412283 20.7995004 18.375 17.6875 C10.18767079 12.19684311 10.18767079 12.19684311 6.71875 9.47265625 C5.31109375 8.37244141 5.31109375 8.37244141 3.875 7.25 C3.06804687 6.59515625 2.26109375 5.9403125 1.4296875 5.265625 C-1.9479814 3.50619619 -3.3589385 3.8994163 -7 5 C-10.13343937 6.39095196 -13.15863758 7.9584066 -16.1875 9.5625 C-17.78228916 10.40260077 -19.37984007 11.2374855 -20.98046875 12.06640625 C-21.68067139 12.43709229 -22.38087402 12.80777832 -23.10229492 13.18969727 C-25 14 -25 14 -28 14 C-28 14.66 -28 15.32 -28 16 C-27.15308594 16.39396973 -27.15308594 16.39396973 -26.2890625 16.79589844 C-21.87424899 19.11819582 -17.99313976 22.27796312 -14 25.25 C-13.09765625 25.90613281 -12.1953125 26.56226563 -11.265625 27.23828125 C-6.52374463 30.76663307 -2.8500143 33.78576929 0 39 C-0.33 39.66 -0.66 40.32 -1 41 C-1.825 40.34515625 -2.65 39.6903125 -3.5 39.015625 C-4.66665999 38.09374155 -5.83332726 37.17186731 -7 36.25 C-7.61633301 35.75991455 -8.23266602 35.2698291 -8.86767578 34.76489258 C-12.34736917 32.0165526 -15.86545049 29.36048069 -19.4921875 26.80859375 C-20.22308594 26.2868457 -20.95398438 25.76509766 -21.70703125 25.22753906 C-23.13310451 24.21451315 -24.57048708 23.21719112 -26.01953125 22.23730469 C-26.67050781 21.77098633 -27.32148438 21.30466797 -27.9921875 20.82421875 C-28.57339355 20.42291748 -29.15459961 20.02161621 -29.75341797 19.6081543 C-31.64371131 17.16957963 -31.1984633 14.98081562 -31 12 C-27.39788595 10.11223459 -23.78671445 8.24322839 -20.16625977 6.39086914 C-18.93676073 5.75855072 -17.7098246 5.12122227 -16.4855957 4.47875977 C-14.72253154 3.55463641 -12.94923827 2.65011223 -11.17578125 1.74609375 C-10.11270752 1.19622803 -9.04963379 0.6463623 -7.9543457 0.07983398 C-4.68620866 -1.11469293 -3.25954504 -1.07322645 0 0 Z " fill="#5D8EDD" transform="translate(353,196)"/>
<path d="M0 0 C0.763125 0.680625 1.52625 1.36125 2.3125 2.0625 C6.1613378 5.30070488 10.41834117 7.83896339 14.70703125 10.44921875 C17 12 17 12 18 14 C17.71887936 16.00800456 17.38932033 18.01014051 17 20 C17.66 20 18.32 20 19 20 C19 18.35 19 16.7 19 15 C24.82103366 15.52816329 29.00579049 19.15407001 33.58984375 22.49414062 C38.19529817 25.5927619 42.07918392 26.93398357 47.65820312 26.66479492 C55.49450453 25.10589306 62.70667341 21.42263252 69.9375 18.125 C71.63525057 17.3692554 73.33381368 16.61533339 75.03320312 15.86328125 C83.5927461 12.09319892 83.5927461 12.09319892 92 8 C92.375 10.25 92.375 10.25 92 13 C87.21793673 16.83650133 81.90694544 18.74103752 76.1875 20.8125 C68.08312623 23.80249231 68.08312623 23.80249231 60.08984375 27.07421875 C59.33356689 27.39865967 58.57729004 27.72310059 57.7980957 28.05737305 C56.39241766 28.6671161 54.99084947 29.28646189 53.59448242 29.91723633 C49.19252968 31.81619432 45.77022166 32.62289725 41 32 C38.27465849 30.82590839 35.85283521 29.31169077 33.375 27.6875 C32.73304688 27.28337891 32.09109375 26.87925781 31.4296875 26.46289062 C30.18466795 25.67837523 28.94326494 24.88808263 27.70605469 24.09130859 C25.49899916 22.67952579 23.25442187 21.3345141 21 20 C21.04125 20.78375 21.0825 21.5675 21.125 22.375 C21 25 21 25 19 27 C16.73725212 26.64644564 15.04911148 26.02455574 13 25 C12.875 17.25 12.875 17.25 14 15 C13.34 14.773125 12.68 14.54625 12 14.3125 C1.96 9.92 1.96 9.92 0 6 C-0.039992 4.00039988 -0.04346799 1.99952758 0 0 Z " fill="#94B3F9" transform="translate(404,103)"/>
<path d="M0 0 C7.592088 5.8567536 9.85208002 15.86130578 11.375 24.9375 C13.3230985 41.85223986 8.84608513 56.68048163 2 72 C1.67 72 1.34 72 1 72 C0.89461502 66.02818432 0.96248917 60.09953813 1.3581543 54.13818359 C1.9473553 45.25656155 2.11103404 36.40096878 2.125 27.5 C2.12951172 26.31921875 2.13402344 25.1384375 2.13867188 23.921875 C2.12503004 15.88228985 2.10688521 7.80851896 0 0 Z " fill="#E5C400" transform="translate(497,189)"/>
<path d="M0 0 C1.17221968 2.50550772 2.14843142 4.90169162 3.0625 7.5 C3.45719482 8.58571289 3.45719482 8.58571289 3.85986328 9.69335938 C5.65655195 14.73899417 7.05722116 19.72043852 8 25 C4.8984375 25.7890625 4.8984375 25.7890625 1 26 C-1.46359782 24.53143195 -3.26846901 23.23964969 -5.375 21.375 C-6.49751764 20.44333802 -7.62383601 19.51623639 -8.75390625 18.59375 C-9.30062988 18.14515625 -9.84735352 17.6965625 -10.41064453 17.234375 C-13.67292178 14.70072311 -17.30321027 12.81496137 -21 11 C-17.76865078 7.41231152 -14.09815123 5.05081903 -9.9375 2.6875 C-9.00067383 2.1296582 -9.00067383 2.1296582 -8.04492188 1.56054688 C-3.36486337 -1.12162112 -3.36486337 -1.12162112 0 0 Z " fill="#DCE8FD" transform="translate(344,136)"/>
<path d="M0 0 C2.91517292 1.07401108 4.77810176 1.77810176 7 4 C7 8.08725071 6.33882328 9.64423555 3.5 12.625 C-4.12779023 18.30917061 -12.2323738 20.13250804 -21.625 20.1875 C-23.28402344 20.20876953 -23.28402344 20.20876953 -24.9765625 20.23046875 C-27.9000427 20.00761948 -29.53458529 19.52134128 -32 18 C-30.33872511 14.92278617 -28.60694739 12.35077337 -26 10 C-23.23906181 9.36053388 -20.71280917 9.31179064 -17.8828125 9.2578125 C-11.10857715 8.65198657 -4.95906469 4.46315822 0 0 Z " fill="#E5C402" transform="translate(463,178)"/>
<path d="M0 0 C1.10715579 15.62319832 -5.6154547 27.93772161 -15 40 C-17.15625 42.05859375 -17.15625 42.05859375 -19 43 C-19.99 42.67 -20.98 42.34 -22 42 C-21.67725098 41.47156494 -21.35450195 40.94312988 -21.02197266 40.39868164 C-19.54322795 37.96095956 -18.08412757 35.51201041 -16.625 33.0625 C-16.11710937 32.23169922 -15.60921875 31.40089844 -15.0859375 30.54492188 C-10.99575123 23.62927799 -8.93166788 17.30394268 -8.75 9.25 C-8.42716216 5.77187909 -7.7226223 4.2240458 -5.0625 1.9375 C-2 0 -2 0 0 0 Z " fill="#2B292D" transform="translate(479,135)"/>
<path d="M0 0 C3.2826932 1.49076434 5.93077441 3.38620321 8.75 5.625 C9.94882812 6.57246094 9.94882812 6.57246094 11.171875 7.5390625 C11.77515625 8.02117187 12.3784375 8.50328125 13 9 C12.34 6.69 11.68 4.38 11 2 C15.5309594 2 16.05001046 2.47130579 19.25 5.375 C20.30960937 6.31472656 20.30960937 6.31472656 21.390625 7.2734375 C23 9 23 9 23 11 C22.236875 11.391875 21.47375 11.78375 20.6875 12.1875 C17.02360316 14.65850019 16.47271683 16.89189515 15 21 C8.4339947 17.76706493 3.37491095 14.7498219 0 8 C-0.13415472 5.3276379 -0.04318541 2.67749512 0 0 Z " fill="#F4B3B2" transform="translate(339,227)"/>
<path d="M0 0 C0.66 0 1.32 0 2 0 C3.00380916 2.79035046 4.0031945 5.58214855 5 8.375 C5.28617187 9.1690625 5.57234375 9.963125 5.8671875 10.78125 C6.13789063 11.54179688 6.40859375 12.30234375 6.6875 13.0859375 C6.93886719 13.7876709 7.19023437 14.4894043 7.44921875 15.21240234 C8 17 8 17 8 19 C5.4453125 20.7265625 5.4453125 20.7265625 2.125 22.625 C0.48917969 23.57246094 0.48917969 23.57246094 -1.1796875 24.5390625 C-4 26 -4 26 -6 26 C-4.60213923 17.15301274 -2.39537771 8.61638292 0 0 Z " fill="#6190DE" transform="translate(334,74)"/>
<path d="M0 0 C0.3403125 0.8353125 0.3403125 0.8353125 0.6875 1.6875 C3.18085686 6.08055733 5.8632288 8.58395887 10.62890625 10.328125 C11.93580601 10.6532114 13.24729911 10.96031957 14.5625 11.25 C15.22185547 11.40984375 15.88121094 11.5696875 16.56054688 11.734375 C18.37023112 12.17088175 20.18496755 12.58629428 22 13 C22.65355469 13.19980469 23.30710937 13.39960938 23.98046875 13.60546875 C27.21589958 14.23753551 30.46782173 14.10282922 33.75 14.0625 C34.44738281 14.05798828 35.14476562 14.05347656 35.86328125 14.04882812 C37.57555803 14.0371002 39.28779033 14.01916653 41 14 C40.67 14.99 40.34 15.98 40 17 C31.45903169 19.84698944 22.48629867 17.95364338 14 15.8125 C12.78086914 15.51835205 12.78086914 15.51835205 11.53710938 15.21826172 C6.41571751 13.83148416 3.50354115 12.18098368 0 8 C-0.33 7.67 -0.66 7.34 -1 7 C-1.125 4 -1.125 4 -1 1 C-0.67 0.67 -0.34 0.34 0 0 Z " fill="#C8D8F0" transform="translate(394,487)"/>
<path d="M0 0 C1.1725131 0.95117134 2.33787015 1.91117009 3.5 2.875 C4.47453125 3.67550781 4.47453125 3.67550781 5.46875 4.4921875 C5.9740625 4.98976563 6.479375 5.48734375 7 6 C7 6.66 7 7.32 7 8 C7.58007812 8.26039063 8.16015625 8.52078125 8.7578125 8.7890625 C11.1474841 10.07965169 12.8790698 11.53938548 14.875 13.375 C21.09435734 19.22391169 21.09435734 19.22391169 29.0625 21.375 C32.52841058 21.04491328 34.91586556 20.54206722 38 19 C36.84826645 21.46800047 35.95216435 23.04783565 34 25 C29.71353262 26.29590874 26.87917285 26.03745743 22.83984375 24.06640625 C14.67436991 19.33355199 4.94244505 12.09345371 0 4 C0 2.68 0 1.36 0 0 Z " fill="#C8D9F0" transform="translate(451,454)"/>
<path d="M0 0 C2.5 1.1875 2.5 1.1875 4 3 C4.25 5.6875 4.25 5.6875 4 8 C0.58251778 10.10306598 -2.02085525 10.40603518 -6 10 C-8.875 8.8125 -8.875 8.8125 -11 7 C-11.5 4.4375 -11.5 4.4375 -11 2 C-7.29794469 -0.46803687 -4.29346556 -0.55288088 0 0 Z " fill="#5687D8" transform="translate(454,100)"/>
<path d="M0 0 C0 0.66 0 1.32 0 2 C-1.57201172 2.83144531 -1.57201172 2.83144531 -3.17578125 3.6796875 C-4.55473151 4.41137539 -5.93363534 5.1431508 -7.3125 5.875 C-8.00279297 6.23980469 -8.69308594 6.60460938 -9.40429688 6.98046875 C-10.40493164 7.51220703 -10.40493164 7.51220703 -11.42578125 8.0546875 C-12.03848877 8.37937012 -12.65119629 8.70405273 -13.2824707 9.03857422 C-14.90258648 9.94547058 -16.45515434 10.9701029 -18 12 C-18.33814748 14.47491114 -18.48872339 16.71351688 -18.51171875 19.1953125 C-18.52966995 19.90275604 -18.54762115 20.61019958 -18.56611633 21.33908081 C-18.62034442 23.60099303 -18.65415316 25.86269284 -18.6875 28.125 C-18.72066226 29.65758173 -18.7551509 31.19013538 -18.79101562 32.72265625 C-18.87607727 36.48161779 -18.94282753 40.240515 -19 44 C-19.33 44 -19.66 44 -20 44 C-20 31.46 -20 18.92 -20 6 C-5.6 0 -5.6 0 0 0 Z " fill="#C2D5F2" transform="translate(150,42)"/>
<path d="M0 0 C0.763125 0.680625 1.52625 1.36125 2.3125 2.0625 C6.1613378 5.30070488 10.41834117 7.83896339 14.70703125 10.44921875 C17 12 17 12 18 14 C17.03380551 18.34787522 15.9603645 21.63594943 13 25 C12.875 17.25 12.875 17.25 14 15 C13.34 14.773125 12.68 14.54625 12 14.3125 C1.96 9.92 1.96 9.92 0 6 C-0.039992 4.00039988 -0.04346799 1.99952758 0 0 Z " fill="#94B3F9" transform="translate(404,103)"/>
<path d="M0 0 C0.66 1.32 1.32 2.64 2 4 C-12.00801068 8.82242991 -12.00801068 8.82242991 -18.875 5.6875 C-21 4 -21 4 -23 1 C-21.97519531 1.01160156 -20.95039063 1.02320313 -19.89453125 1.03515625 C-18.533856 1.04454022 -17.17317876 1.05363977 -15.8125 1.0625 C-15.13896484 1.07087891 -14.46542969 1.07925781 -13.77148438 1.08789062 C-9.0713232 1.11081824 -4.63949174 0 0 0 Z " fill="#EAA8A8" transform="translate(445,174)"/>
<path d="M0 0 C0 3.96 0 7.92 0 12 C-3.84235498 10.86475876 -7.1258669 9.8741331 -10 7 C-10 5.68 -10 4.36 -10 3 C-8.70990357 2.49596232 -7.41786211 1.99690074 -6.125 1.5 C-5.04605469 1.08234375 -5.04605469 1.08234375 -3.9453125 0.65625 C-2 0 -2 0 0 0 Z " fill="#3369AB" transform="translate(296,162)"/>
<path d="M0 0 C2.475 0.99 2.475 0.99 5 2 C4.67 3.32 4.34 4.64 4 6 C2.125 6.625 2.125 6.625 0 7 C-0.66 6.34 -1.32 5.68 -2 5 C-1.46428571 1.46428571 -1.46428571 1.46428571 0 0 Z " fill="#5888D7" transform="translate(420,123)"/>
<path d="M0 0 C0.99 0.33 1.98 0.66 3 1 C2.46930939 4.82097239 1.50298434 7.06171403 -1 10 C-1.125 2.25 -1.125 2.25 0 0 Z " fill="#ADC2FE" transform="translate(418,118)"/>
</svg>
